<svg width="1920" height="1080" viewBox="0 0 1920 1080" fill="none" xmlns="http://www.w3.org/2000/svg">
<g clip-path="url(#clip0_2002_2)" filter="url(#filter0_b_2002_2)">
<rect width="1920" height="1080" fill="#00111E"/>
<g filter="url(#filter1_f_2002_2)">
<path fill-rule="evenodd" clip-rule="evenodd" d="M1008.52 308.019C977.913 208.197 1085.34 121.308 1173.07 54.3695C1260.71 -12.5065 1371.55 -73.6495 1497.91 -65.4116C1618.67 -57.5387 1701.72 37.4906 1803.85 95.494C1891.42 145.228 1987.75 181.051 2052.6 249.619C2128.71 330.103 2217.73 421.55 2202.12 516.629C2186.49 611.815 2064.56 660.641 1975.23 720.701C1891.81 776.793 1813.91 848.172 1701.36 853.311C1590.35 858.379 1470.34 816.004 1391.54 747.352C1321.03 685.921 1374.27 584.754 1314.79 516.522C1236.35 426.553 1040.53 412.388 1008.52 308.019Z" fill="#021B2C"/>
</g>
<g filter="url(#filter2_f_2002_2)">
<path fill-rule="evenodd" clip-rule="evenodd" d="M678.523 1337.59C612.813 1358.69 536.736 1338.51 461.107 1308.08C386.176 1277.93 317.768 1224.58 248.438 1164.55C153.374 1082.23 38.7766 1019.72 -16.4699 894.545C-76.6938 758.097 -76.1111 610.026 -50.2893 487.731C-22.5873 356.532 30.7437 232.141 132.028 191.242C231.769 150.967 367.054 180.309 476.581 274.981C576.461 361.315 579.144 539.858 664.371 651.386C747.336 759.953 907.002 762.72 950.003 894.501C991.536 1021.78 891.528 1101.02 839.042 1186.69C797.237 1254.92 748.728 1315.04 678.523 1337.59Z" fill="#021B2C"/>
</g>
<path d="M294.204 1313.54C349.977 1334.79 406.602 1348.81 456.071 1332.65C508.884 1315.41 545.717 1270.95 577.455 1221.05C586.476 1206.86 597.315 1192.89 608.382 1178.62C609.467 1177.22 610.555 1175.81 611.644 1174.41C623.809 1158.69 636.046 1142.58 646.118 1125.54C666.293 1091.4 677.845 1053.4 662.946 1006.99C647.502 958.874 609.79 934.803 568.824 913.114C563.396 910.24 557.913 907.408 552.415 904.568C516.279 885.907 479.488 866.906 453.509 833.438C425.748 797.675 410.458 751.93 395.297 706.573C393.631 701.588 391.967 696.609 390.288 691.647C373.381 641.697 354.963 593.6 318.029 562.552C237.509 494.863 136.947 474.802 61.9507 505.278C23.7886 520.786 -5.5227 551.412 -28.017 590.007C-50.5101 628.6 -66.2428 675.253 -77.2192 722.995C-97.6949 812.055 -99.7128 919.659 -56.333 1018.24C-36.3857 1063.56 -5.21651 1097.28 29.6028 1126.96C47.008 1141.8 65.3454 1155.65 83.6521 1169.43L85.1065 1170.52C102.938 1183.94 120.716 1197.32 137.621 1211.56C188.4 1254.32 238.718 1292.39 294.204 1313.54Z" fill="#042D49" stroke="#07568E" stroke-width="3"/>
<path d="M1406.11 37.7774C1368.83 65.1625 1327.19 96.7531 1298.23 131.877C1269.26 167.009 1252.74 205.972 1266.31 247.959C1273.42 269.965 1289.4 287.182 1310.21 301.781C1331.01 316.374 1356.79 328.44 1383.67 340.093C1390.15 342.899 1396.69 345.68 1403.24 348.467C1423.95 357.278 1444.8 366.148 1464.21 376.034C1489.77 389.043 1512.7 403.74 1529.39 422.209C1553.41 448.787 1555.95 481.301 1558.5 514.095C1558.63 515.687 1558.75 517.28 1558.88 518.873C1561.61 553.121 1565.51 587.306 1596.32 613.285C1664.3 670.612 1767.42 706.335 1862.61 702.718C1942.44 699.684 2001.81 658.992 2059.9 619.171C2072.16 610.771 2084.35 602.41 2096.67 594.449C2113.24 583.745 2131.14 573.49 2149.17 563.159C2151.78 561.666 2154.38 560.172 2156.99 558.675C2177.62 546.824 2198.19 534.78 2216.79 521.805C2253.96 495.885 2283.6 466.04 2290.13 426.169C2296.64 386.399 2280.46 347.406 2254.67 310.145C2230.06 274.596 2196.53 240.389 2165.11 208.334C2163.59 206.783 2162.08 205.237 2160.57 203.697C2132.53 175.066 2097.81 153.228 2060.78 133.38C2044.01 124.39 2026.75 115.797 2009.41 107.166C2007.61 106.268 2005.8 105.37 2004 104.471C1984.84 94.9244 1965.63 85.2746 1946.89 74.9144C1925.07 62.8502 1904.24 48.8797 1883.62 34.5714C1878.88 31.2849 1874.16 27.9795 1869.43 24.6756C1853.61 13.6085 1837.81 2.55641 1821.72 -7.72511C1779.93 -34.4383 1736.01 -56.0942 1684.03 -59.6844C1575.49 -67.1809 1480.75 -17.0416 1406.11 37.7774Z" fill="#042D49" stroke="#07568E" stroke-width="3"/>
<path d="M201.776 1258.22C248.854 1274.2 296.858 1284.27 339.474 1269.93C384.96 1254.62 417.453 1217.51 445.719 1176.11C453.746 1164.36 463.318 1152.72 473.098 1140.84C474.057 1139.67 475.018 1138.51 475.98 1137.34C486.729 1124.25 497.556 1110.84 506.559 1096.71C524.589 1068.42 535.403 1037.11 523.76 999.536C511.684 960.563 479.957 941.811 445.549 925.135C440.983 922.922 436.371 920.745 431.748 918.564C401.369 904.227 370.522 889.669 349.219 863.109C326.443 834.711 314.516 797.901 302.664 761.323C301.363 757.307 300.062 753.294 298.749 749.294C285.525 709.04 270.936 670.211 240.084 645.738C172.939 592.479 87.5765 578.548 22.8547 605.165C-42.9864 632.241 -80.1375 707.68 -101.115 785.861C-120.711 858.893 -125.014 946.636 -90.3242 1025.96C-74.3591 1062.47 -48.5301 1089.22 -19.5235 1112.57C-5.02425 1124.25 10.2925 1135.09 25.5752 1145.87L26.7873 1146.73C41.6763 1157.23 56.5118 1167.69 70.5817 1178.88C112.874 1212.49 154.912 1242.31 201.776 1258.22Z" fill="#075183" stroke="#07568E" stroke-width="3"/>
<g filter="url(#filter3_d_2002_2)">
<path fill-rule="evenodd" clip-rule="evenodd" d="M213.583 1230.07C171.886 1245.12 126.602 1240.04 82.2781 1229.76C38.3641 1219.58 0.00388405 1197.26 -38.4733 1171.63C-91.2322 1136.48 -157.293 1112.63 -182.77 1053.2C-210.543 988.417 -200.26 913.695 -176.232 850.281C-150.455 782.251 -109.423 715.936 -44.5907 688.518C19.2532 661.518 100.221 667.249 161.018 707.657C216.46 744.506 206.136 834.379 250.907 884.917C294.489 934.115 392.184 924.807 409.711 988.391C426.64 1049.81 360.02 1096.48 322.102 1143.2C291.9 1180.42 258.133 1213.99 213.583 1230.07Z" fill="#0862A0"/>
</g>
<g filter="url(#filter4_d_2002_2)">
<path fill-rule="evenodd" clip-rule="evenodd" d="M153.583 1290.07C111.886 1305.12 66.6016 1300.04 22.2781 1289.76C-21.6359 1279.58 -59.9961 1257.26 -98.4733 1231.63C-151.232 1196.48 -217.293 1172.63 -242.77 1113.2C-270.543 1048.42 -260.26 973.695 -236.232 910.281C-210.455 842.251 -169.423 775.936 -104.591 748.518C-40.7468 721.518 40.2207 727.249 101.018 767.657C156.46 804.506 146.136 894.379 190.907 944.917C234.489 994.115 332.184 984.807 349.711 1048.39C366.64 1109.81 300.02 1156.48 262.102 1203.2C231.9 1240.42 198.133 1273.99 153.583 1290.07Z" fill="#0A74BD"/>
</g>
<path d="M1530.59 -17.5559C1498.72 10.5626 1463.1 42.9579 1437.97 78.4878C1412.83 114.024 1398.01 152.924 1408.14 193.969C1418.76 237.027 1459.5 260.409 1503.61 281.905C1508.94 284.502 1514.32 287.072 1519.72 289.647C1536.74 297.78 1553.87 305.959 1569.78 315.183C1590.71 327.319 1609.39 341.184 1622.77 358.944C1642.06 384.541 1643.27 416.648 1644.49 449.029C1644.55 450.592 1644.61 452.156 1644.67 453.72C1645.99 487.455 1648.28 521.152 1673.31 546.029C1728.49 600.882 1813.64 633.389 1893.29 627.15C1933.81 623.976 1968.34 607.333 2000.27 585.627C2021.03 571.515 2040.79 555.181 2060.37 538.995C2070.84 530.342 2081.26 521.731 2091.75 513.525C2105.86 502.483 2121.08 491.847 2136.41 481.13C2138.62 479.582 2140.84 478.031 2143.06 476.478C2160.6 464.186 2178.1 451.702 2193.98 438.351C2225.74 411.661 2251.25 381.349 2257.79 341.84C2264.32 302.426 2251.94 264.357 2231.44 228.202C2211.9 193.729 2184.87 160.83 2159.55 130.012C2158.33 128.52 2157.11 127.033 2155.89 125.551C2133.27 97.9913 2104.88 77.3433 2074.52 58.7378C2060.78 50.3131 2046.61 42.2946 2032.39 34.2455C2030.91 33.4073 2029.43 32.5687 2027.94 31.7292C2012.22 22.824 1996.48 13.8222 1981.14 4.10636C1963.29 -7.20197 1946.32 -20.4238 1929.51 -33.9957C1925.66 -37.1108 1921.81 -40.2455 1917.96 -43.3795C1905.07 -53.8826 1892.19 -64.3774 1879.04 -74.1009C1844.91 -99.3596 1808.78 -119.613 1765.38 -121.722C1674.87 -126.12 1594.35 -73.8147 1530.59 -17.5559Z" fill="#075183" stroke="#07568E" stroke-width="3"/>
<g filter="url(#filter5_d_2002_2)">
<path fill-rule="evenodd" clip-rule="evenodd" d="M1482.3 113.186C1466.39 37.912 1534.28 -31.3026 1589.61 -84.7619C1644.89 -138.171 1714.16 -187.848 1790.98 -185.047C1864.39 -182.371 1912.41 -112.197 1973.08 -70.7808C2025.1 -35.2694 2082.85 -10.6071 2120.5 39.8909C2164.69 99.1654 2216.45 166.444 2204.31 239.375C2192.16 312.387 2116.47 352.977 2060.35 401.236C2007.94 446.306 1958.48 502.88 1889.71 509.9C1821.89 516.823 1749.89 487.817 1703.73 437.638C1662.43 392.738 1697.68 314.128 1663.29 263.739C1617.95 197.295 1498.94 191.889 1482.3 113.186Z" fill="#0862A0"/>
</g>
<g filter="url(#filter6_d_2002_2)">
<path fill-rule="evenodd" clip-rule="evenodd" d="M1542.3 53.186C1526.39 -22.088 1594.28 -91.3026 1649.61 -144.762C1704.89 -198.171 1774.16 -247.848 1850.98 -245.047C1924.39 -242.371 1972.41 -172.197 2033.08 -130.781C2085.1 -95.2694 2142.85 -70.6071 2180.5 -20.1091C2224.69 39.1654 2276.45 106.444 2264.31 179.375C2252.16 252.387 2176.47 292.977 2120.35 341.236C2067.94 386.306 2018.48 442.88 1949.71 449.9C1881.89 456.823 1809.89 427.817 1763.73 377.638C1722.43 332.738 1757.68 254.128 1723.29 203.739C1677.95 137.295 1558.94 131.889 1542.3 53.186Z" fill="#0A74BD"/>
</g>
<g filter="url(#filter7_d_2002_2)">
<path fill-rule="evenodd" clip-rule="evenodd" d="M1602.3 -6.81401C1586.39 -82.088 1654.28 -151.303 1709.61 -204.762C1764.89 -258.171 1834.16 -307.848 1910.98 -305.047C1984.39 -302.371 2032.41 -232.197 2093.08 -190.781C2145.1 -155.269 2202.85 -130.607 2240.5 -80.1091C2284.69 -20.8346 2336.45 46.4441 2324.31 119.375C2312.16 192.387 2236.47 232.977 2180.35 281.236C2127.94 326.306 2078.48 382.88 2009.71 389.9C1941.89 396.823 1869.89 367.817 1823.73 317.638C1782.43 272.738 1817.68 194.128 1783.29 143.739C1737.95 77.2951 1618.94 71.8889 1602.3 -6.81401Z" fill="#3D94F5"/>
</g>
<g filter="url(#filter8_d_2002_2)">
<path fill-rule="evenodd" clip-rule="evenodd" d="M75.6723 1312.5C34.1056 1327.82 -10.4603 1324.25 -53.9376 1315.75C-97.0133 1307.32 -134.279 1287.29 -171.572 1264.15C-222.706 1232.41 -287.277 1211.69 -310.825 1156.3C-336.496 1095.93 -324.331 1025.15 -298.904 964.676C-271.625 899.795 -229.333 836.123 -164.595 808.508C-100.844 781.314 -21.0708 784.539 37.8569 821.026C91.5944 854.299 78.9818 939.37 121.816 985.847C163.513 1031.09 260.204 1019.68 275.793 1079.19C290.85 1136.68 223.828 1182.51 185.138 1227.62C154.322 1263.54 120.083 1296.13 75.6723 1312.5Z" fill="#3D94F5"/>
</g>
<path d="M980.052 412L937.507 416.076V591.386L979.602 585.044V510.3L1036.19 593.201L1080.55 579.155L1022.61 499.428L1081 424.231L1035.74 413.817L979.603 489.011L980.052 412ZM883.612 454.72C883.132 454.771 882.668 454.983 882.307 455.345L865.609 472.052C864.907 472.756 864.774 473.849 865.292 474.702L884.842 506.923C881.375 512.757 878.595 519.046 876.609 525.681L840.718 533.152C839.719 533.359 839 534.244 839 535.269V558.897C839 559.897 839.683 560.762 840.645 560.995L875.481 569.516C877.339 577.2 880.218 584.485 884.022 591.18L863.858 621.949C863.296 622.809 863.413 623.942 864.14 624.666L880.832 641.373C881.535 642.074 882.63 642.211 883.487 641.696L915.084 622.493C921.291 626.077 927.984 628.897 935.058 630.81L942.431 666.281C942.638 667.286 943.526 668 944.544 668H968.158C969.151 668 970.017 667.322 970.254 666.347L978.938 630.804C986.23 628.834 993.127 625.899 999.486 622.152L1030.62 642.582C1031.48 643.147 1032.61 643.033 1033.34 642.307L1050.04 625.6C1050.74 624.893 1050.87 623.801 1050.35 622.95L1038.98 604.204L1035.31 605.367C1034.77 605.537 1034.19 605.337 1033.87 604.87C1033.87 604.87 1026.62 594.249 1017.26 580.534C1006.06 602.457 983.288 617.475 956.989 617.475C919.624 617.475 889.332 587.16 889.332 549.768C889.332 522.261 905.728 498.605 929.264 488.008V470.541C924.98 472.041 920.839 473.849 916.906 475.993C916.906 475.993 916.9 475.983 916.889 475.973L885.018 455.055C884.589 454.775 884.092 454.663 883.611 454.712L883.612 454.72Z" fill="#1D99F3"/>
</g>
<defs>
<filter id="filter0_b_2002_2" x="-72.3" y="-72.3" width="2064.6" height="1224.6" filterUnits="userSpaceOnUse" color-interpolation-filters="sRGB">
<feFlood flood-opacity="0" result="BackgroundImageFix"/>
<feGaussianBlur in="BackgroundImageFix" stdDeviation="36.15"/>
<feComposite in2="SourceAlpha" operator="in" result="effect1_backgroundBlur_2002_2"/>
<feBlend mode="normal" in="SourceGraphic" in2="effect1_backgroundBlur_2002_2" result="shape"/>
</filter>
<filter id="filter1_f_2002_2" x="803.195" y="-266.159" width="1600.72" height="1319.88" filterUnits="userSpaceOnUse" color-interpolation-filters="sRGB">
<feFlood flood-opacity="0" result="BackgroundImageFix"/>
<feBlend mode="normal" in="SourceGraphic" in2="BackgroundImageFix" result="shape"/>
<feGaussianBlur stdDeviation="100" result="effect1_foregroundBlur_2002_2"/>
</filter>
<filter id="filter2_f_2002_2" x="-266.884" y="-26.3379" width="1426.74" height="1572.63" filterUnits="userSpaceOnUse" color-interpolation-filters="sRGB">
<feFlood flood-opacity="0" result="BackgroundImageFix"/>
<feBlend mode="normal" in="SourceGraphic" in2="BackgroundImageFix" result="shape"/>
<feGaussianBlur stdDeviation="100" result="effect1_foregroundBlur_2002_2"/>
</filter>
<filter id="filter3_d_2002_2" x="-231.526" y="649.848" width="680.041" height="635.773" filterUnits="userSpaceOnUse" color-interpolation-filters="sRGB">
<feFlood flood-opacity="0" result="BackgroundImageFix"/>
<feColorMatrix in="SourceAlpha" type="matrix" values="0 0 0 0 0 0 0 0 0 0 0 0 0 0 0 0 0 0 127 0" result="hardAlpha"/>
<feOffset dx="2" dy="12"/>
<feGaussianBlur stdDeviation="17.05"/>
<feComposite in2="hardAlpha" operator="out"/>
<feColorMatrix type="matrix" values="0 0 0 0 0 0 0 0 0 0 0 0 0 0 0 0 0 0 0.25 0"/>
<feBlend mode="normal" in2="BackgroundImageFix" result="effect1_dropShadow_2002_2"/>
<feBlend mode="normal" in="SourceGraphic" in2="effect1_dropShadow_2002_2" result="shape"/>
</filter>
<filter id="filter4_d_2002_2" x="-291.526" y="709.848" width="680.041" height="635.773" filterUnits="userSpaceOnUse" color-interpolation-filters="sRGB">
<feFlood flood-opacity="0" result="BackgroundImageFix"/>
<feColorMatrix in="SourceAlpha" type="matrix" values="0 0 0 0 0 0 0 0 0 0 0 0 0 0 0 0 0 0 127 0" result="hardAlpha"/>
<feOffset dx="2" dy="12"/>
<feGaussianBlur stdDeviation="17.05"/>
<feComposite in2="hardAlpha" operator="out"/>
<feColorMatrix type="matrix" values="0 0 0 0 0 0 0 0 0 0 0 0 0 0 0 0 0 0 0.25 0"/>
<feBlend mode="normal" in2="BackgroundImageFix" result="effect1_dropShadow_2002_2"/>
<feBlend mode="normal" in="SourceGraphic" in2="effect1_dropShadow_2002_2" result="shape"/>
</filter>
<filter id="filter5_d_2002_2" x="1447.85" y="-207.261" width="794.361" height="764.274" filterUnits="userSpaceOnUse" color-interpolation-filters="sRGB">
<feFlood flood-opacity="0" result="BackgroundImageFix"/>
<feColorMatrix in="SourceAlpha" type="matrix" values="0 0 0 0 0 0 0 0 0 0 0 0 0 0 0 0 0 0 127 0" result="hardAlpha"/>
<feOffset dx="2" dy="12"/>
<feGaussianBlur stdDeviation="17.05"/>
<feComposite in2="hardAlpha" operator="out"/>
<feColorMatrix type="matrix" values="0 0 0 0 0 0 0 0 0 0 0 0 0 0 0 0 0 0 0.25 0"/>
<feBlend mode="normal" in2="BackgroundImageFix" result="effect1_dropShadow_2002_2"/>
<feBlend mode="normal" in="SourceGraphic" in2="effect1_dropShadow_2002_2" result="shape"/>
</filter>
<filter id="filter6_d_2002_2" x="1507.85" y="-267.261" width="794.361" height="764.274" filterUnits="userSpaceOnUse" color-interpolation-filters="sRGB">
<feFlood flood-opacity="0" result="BackgroundImageFix"/>
<feColorMatrix in="SourceAlpha" type="matrix" values="0 0 0 0 0 0 0 0 0 0 0 0 0 0 0 0 0 0 127 0" result="hardAlpha"/>
<feOffset dx="2" dy="12"/>
<feGaussianBlur stdDeviation="17.05"/>
<feComposite in2="hardAlpha" operator="out"/>
<feColorMatrix type="matrix" values="0 0 0 0 0 0 0 0 0 0 0 0 0 0 0 0 0 0 0.25 0"/>
<feBlend mode="normal" in2="BackgroundImageFix" result="effect1_dropShadow_2002_2"/>
<feBlend mode="normal" in="SourceGraphic" in2="effect1_dropShadow_2002_2" result="shape"/>
</filter>
<filter id="filter7_d_2002_2" x="1567.85" y="-327.261" width="794.361" height="764.274" filterUnits="userSpaceOnUse" color-interpolation-filters="sRGB">
<feFlood flood-opacity="0" result="BackgroundImageFix"/>
<feColorMatrix in="SourceAlpha" type="matrix" values="0 0 0 0 0 0 0 0 0 0 0 0 0 0 0 0 0 0 127 0" result="hardAlpha"/>
<feOffset dx="2" dy="12"/>
<feGaussianBlur stdDeviation="17.05"/>
<feComposite in2="hardAlpha" operator="out"/>
<feColorMatrix type="matrix" values="0 0 0 0 0 0 0 0 0 0 0 0 0 0 0 0 0 0 0.25 0"/>
<feBlend mode="normal" in2="BackgroundImageFix" result="effect1_dropShadow_2002_2"/>
<feBlend mode="normal" in="SourceGraphic" in2="effect1_dropShadow_2002_2" result="shape"/>
</filter>
<filter id="filter8_d_2002_2" x="-357.154" y="768.421" width="671.212" height="600.738" filterUnits="userSpaceOnUse" color-interpolation-filters="sRGB">
<feFlood flood-opacity="0" result="BackgroundImageFix"/>
<feColorMatrix in="SourceAlpha" type="matrix" values="0 0 0 0 0 0 0 0 0 0 0 0 0 0 0 0 0 0 127 0" result="hardAlpha"/>
<feOffset dx="2" dy="12"/>
<feGaussianBlur stdDeviation="17.05"/>
<feComposite in2="hardAlpha" operator="out"/>
<feColorMatrix type="matrix" values="0 0 0 0 0 0 0 0 0 0 0 0 0 0 0 0 0 0 0.25 0"/>
<feBlend mode="normal" in2="BackgroundImageFix" result="effect1_dropShadow_2002_2"/>
<feBlend mode="normal" in="SourceGraphic" in2="effect1_dropShadow_2002_2" result="shape"/>
</filter>
<clipPath id="clip0_2002_2">
<rect width="1920" height="1080" fill="white"/>
</clipPath>
</defs>
</svg>
