<svg width="1920" height="1080" viewBox="0 0 1920 1080" fill="none" xmlns="http://www.w3.org/2000/svg">
<g clip-path="url(#clip0_4039_191)" filter="url(#filter0_b_4039_191)">
<rect width="1920" height="1080" fill="#180802"/>
<g filter="url(#filter1_f_4039_191)">
<path fill-rule="evenodd" clip-rule="evenodd" d="M1005.52 311.018C974.913 211.196 1082.34 124.307 1170.07 57.3685C1257.71 -9.50743 1368.55 -70.6504 1494.91 -62.4125C1615.67 -54.5397 1698.72 40.4896 1800.85 98.493C1888.42 148.227 1984.75 184.05 2049.6 252.618C2125.71 333.102 2214.73 424.549 2199.12 519.628C2183.49 614.814 2061.56 663.64 1972.23 723.7C1888.81 779.792 1810.91 851.171 1698.36 856.31C1587.35 861.378 1467.34 819.003 1388.54 750.351C1318.03 688.92 1371.27 587.753 1311.79 519.521C1233.35 429.552 1037.53 415.387 1005.52 311.018Z" fill="#2F0F04"/>
</g>
<g filter="url(#filter2_f_4039_191)">
<path fill-rule="evenodd" clip-rule="evenodd" d="M678.523 1337.59C612.813 1358.69 536.736 1338.5 461.107 1308.08C386.176 1277.93 317.768 1224.58 248.438 1164.55C153.374 1082.23 38.7766 1019.71 -16.4699 894.544C-76.6938 758.096 -76.1111 610.025 -50.2893 487.73C-22.5873 356.531 30.7437 232.14 132.028 191.241C231.769 150.966 367.054 180.308 476.581 274.98C576.461 361.314 579.144 539.857 664.371 651.385C747.336 759.952 907.002 762.719 950.003 894.5C991.536 1021.78 891.528 1101.02 839.042 1186.69C797.237 1254.92 748.728 1315.04 678.523 1337.59Z" fill="#2F0F04"/>
</g>
<path d="M294.204 1313.54C349.977 1334.79 406.602 1348.81 456.071 1332.65C508.884 1315.41 545.717 1270.95 577.455 1221.05C586.476 1206.86 597.315 1192.89 608.382 1178.62C609.467 1177.22 610.555 1175.81 611.644 1174.41C623.809 1158.69 636.046 1142.58 646.118 1125.54C666.293 1091.41 677.845 1053.4 662.946 1006.99C647.502 958.874 609.79 934.804 568.824 913.114C563.396 910.24 557.913 907.409 552.415 904.569C516.279 885.907 479.488 866.906 453.509 833.439C425.748 797.676 410.458 751.93 395.297 706.573C393.631 701.589 391.967 696.609 390.288 691.648C373.381 641.698 354.963 593.6 318.029 562.553C237.509 494.864 136.947 474.803 61.9507 505.279C23.7886 520.787 -5.5227 551.413 -28.017 590.008C-50.5101 628.6 -66.2428 675.253 -77.2192 722.995C-97.6949 812.055 -99.7128 919.659 -56.333 1018.24C-36.3857 1063.57 -5.21651 1097.28 29.6028 1126.96C47.008 1141.8 65.3454 1155.65 83.6521 1169.43L85.1065 1170.52C102.938 1183.94 120.716 1197.32 137.621 1211.56C188.4 1254.32 238.718 1292.39 294.204 1313.54Z" fill="#4F1A08" stroke="#95300E" stroke-width="3"/>
<path d="M1406.11 37.7774C1368.83 65.1625 1327.19 96.7531 1298.23 131.877C1269.26 167.009 1252.74 205.972 1266.31 247.959C1273.42 269.965 1289.4 287.182 1310.21 301.781C1331.01 316.374 1356.79 328.44 1383.67 340.093C1390.15 342.899 1396.69 345.68 1403.24 348.467C1423.95 357.278 1444.8 366.148 1464.21 376.034C1489.77 389.043 1512.7 403.74 1529.39 422.209C1553.41 448.787 1555.95 481.301 1558.5 514.095C1558.63 515.687 1558.75 517.28 1558.88 518.873C1561.61 553.121 1565.51 587.306 1596.32 613.285C1664.3 670.612 1767.42 706.335 1862.61 702.718C1942.44 699.684 2001.81 658.992 2059.9 619.171C2072.16 610.771 2084.35 602.41 2096.67 594.449C2113.24 583.745 2131.14 573.49 2149.17 563.159C2151.78 561.666 2154.38 560.172 2156.99 558.675C2177.62 546.824 2198.19 534.78 2216.79 521.805C2253.96 495.885 2283.6 466.04 2290.13 426.169C2296.64 386.399 2280.46 347.406 2254.67 310.145C2230.06 274.596 2196.53 240.389 2165.11 208.334C2163.59 206.783 2162.08 205.237 2160.57 203.697C2132.53 175.066 2097.81 153.228 2060.78 133.38C2044.01 124.39 2026.75 115.797 2009.41 107.166C2007.61 106.268 2005.8 105.37 2004 104.471C1984.84 94.9244 1965.63 85.2746 1946.89 74.9144C1925.07 62.8502 1904.24 48.8797 1883.62 34.5714C1878.88 31.2849 1874.16 27.9795 1869.43 24.6756C1853.61 13.6085 1837.81 2.55641 1821.72 -7.72511C1779.93 -34.4383 1736.01 -56.0942 1684.03 -59.6844C1575.49 -67.1809 1480.75 -17.0416 1406.11 37.7774Z" fill="#4F1A08" stroke="#95300E" stroke-width="3"/>
<path d="M201.776 1258.22C248.854 1274.2 296.858 1284.27 339.474 1269.92C384.96 1254.61 417.453 1217.51 445.719 1176.11C453.746 1164.35 463.318 1152.72 473.098 1140.84C474.057 1139.67 475.018 1138.5 475.98 1137.33C486.729 1124.25 497.556 1110.84 506.559 1096.71C524.589 1068.42 535.403 1037.11 523.76 999.535C511.684 960.562 479.957 941.81 445.549 925.134C440.983 922.921 436.371 920.744 431.748 918.563C401.369 904.226 370.522 889.669 349.219 863.108C326.443 834.71 314.516 797.9 302.664 761.322C301.363 757.306 300.062 753.293 298.749 749.293C285.525 709.039 270.936 670.21 240.084 645.737C172.939 592.478 87.5765 578.547 22.8547 605.164C-42.9864 632.24 -80.1375 707.679 -101.115 785.86C-120.711 858.892 -125.014 946.635 -90.3242 1025.96C-74.3591 1062.47 -48.5301 1089.22 -19.5235 1112.57C-5.02425 1124.25 10.2925 1135.09 25.5752 1145.87L26.7873 1146.72C41.6763 1157.23 56.5118 1167.69 70.5817 1178.88C112.874 1212.49 154.912 1242.31 201.776 1258.22Z" fill="#7E290C" stroke="#95300E" stroke-width="3"/>
<g filter="url(#filter3_d_4039_191)">
<path fill-rule="evenodd" clip-rule="evenodd" d="M213.583 1230.07C171.886 1245.12 126.602 1240.04 82.2781 1229.76C38.3641 1219.58 0.00388405 1197.26 -38.4733 1171.63C-91.2322 1136.48 -157.293 1112.63 -182.77 1053.2C-210.543 988.418 -200.26 913.695 -176.232 850.282C-150.455 782.252 -109.423 715.937 -44.5907 688.519C19.2532 661.519 100.221 667.25 161.018 707.658C216.46 744.507 206.136 834.38 250.907 884.918C294.489 934.116 392.184 924.808 409.711 988.392C426.64 1049.81 360.02 1096.48 322.102 1143.2C291.9 1180.42 258.133 1213.99 213.583 1230.07Z" fill="#AD3810"/>
</g>
<g filter="url(#filter4_d_4039_191)">
<path fill-rule="evenodd" clip-rule="evenodd" d="M153.583 1290.07C111.886 1305.12 66.6016 1300.04 22.2781 1289.76C-21.6359 1279.58 -59.9961 1257.26 -98.4733 1231.63C-151.232 1196.48 -217.293 1172.63 -242.77 1113.2C-270.543 1048.42 -260.26 973.695 -236.232 910.282C-210.455 842.252 -169.423 775.937 -104.591 748.519C-40.7468 721.519 40.2207 727.25 101.018 767.658C156.46 804.507 146.136 894.38 190.907 944.918C234.489 994.116 332.184 984.808 349.711 1048.39C366.64 1109.81 300.02 1156.48 262.102 1203.2C231.9 1240.42 198.133 1273.99 153.583 1290.07Z" fill="#DD4814"/>
</g>
<path d="M1530.59 -17.5563C1498.72 10.5621 1463.1 42.9574 1437.97 78.4873C1412.83 114.024 1398.01 152.924 1408.14 193.969C1418.76 237.027 1459.5 260.408 1503.61 281.904C1508.94 284.501 1514.32 287.071 1519.72 289.646C1536.74 297.779 1553.87 305.958 1569.78 315.183C1590.71 327.319 1609.39 341.184 1622.77 358.943C1642.06 384.54 1643.27 416.647 1644.49 449.029C1644.55 450.592 1644.61 452.155 1644.67 453.719C1645.99 487.455 1648.28 521.151 1673.31 546.029C1728.49 600.881 1813.64 633.388 1893.29 627.149C1933.81 623.976 1968.34 607.332 2000.27 585.627C2021.03 571.515 2040.79 555.181 2060.37 538.994C2070.84 530.341 2081.26 521.731 2091.75 513.524C2105.86 502.482 2121.08 491.847 2136.41 481.13C2138.62 479.581 2140.84 478.031 2143.06 476.478C2160.6 464.186 2178.1 451.701 2193.98 438.35C2225.74 411.66 2251.25 381.348 2257.79 341.84C2264.32 302.425 2251.94 264.356 2231.44 228.202C2211.9 193.728 2184.87 160.829 2159.55 130.012C2158.33 128.52 2157.11 127.033 2155.89 125.551C2133.27 97.9908 2104.88 77.3428 2074.52 58.7373C2060.78 50.3126 2046.61 42.2941 2032.39 34.2451C2030.91 33.4068 2029.43 32.5682 2027.94 31.7287C2012.22 22.8235 1996.48 13.8217 1981.14 4.10587C1963.29 -7.20246 1946.32 -20.4243 1929.51 -33.9961C1925.66 -37.1113 1921.81 -40.246 1917.96 -43.38C1905.07 -53.8831 1892.19 -64.3779 1879.04 -74.1014C1844.91 -99.3601 1808.78 -119.614 1765.38 -121.722C1674.87 -126.12 1594.35 -73.8152 1530.59 -17.5563Z" fill="#7E290C" stroke="#95300E" stroke-width="3"/>
<g filter="url(#filter5_d_4039_191)">
<path fill-rule="evenodd" clip-rule="evenodd" d="M1482.3 113.186C1466.39 37.9125 1534.28 -31.3021 1589.61 -84.7614C1644.89 -138.171 1714.16 -187.848 1790.98 -185.047C1864.39 -182.37 1912.41 -112.196 1973.08 -70.7803C2025.1 -35.2689 2082.85 -10.6066 2120.5 39.8914C2164.69 99.1659 2216.45 166.445 2204.31 239.375C2192.16 312.388 2116.47 352.978 2060.35 401.237C2007.94 446.306 1958.48 502.881 1889.71 509.9C1821.89 516.823 1749.89 487.817 1703.73 437.639C1662.43 392.738 1697.68 314.129 1663.29 263.739C1617.95 197.296 1498.94 191.889 1482.3 113.186Z" fill="#AD3810"/>
</g>
<g filter="url(#filter6_d_4039_191)">
<path fill-rule="evenodd" clip-rule="evenodd" d="M1542.3 53.1865C1526.39 -22.0875 1594.28 -91.3021 1649.61 -144.761C1704.89 -198.171 1774.16 -247.848 1850.98 -245.047C1924.39 -242.37 1972.41 -172.196 2033.08 -130.78C2085.1 -95.2689 2142.85 -70.6066 2180.5 -20.1086C2224.69 39.1659 2276.45 106.445 2264.31 179.375C2252.16 252.388 2176.47 292.978 2120.35 341.237C2067.94 386.306 2018.48 442.881 1949.71 449.9C1881.89 456.823 1809.89 427.817 1763.73 377.639C1722.43 332.738 1757.68 254.129 1723.29 203.739C1677.95 137.296 1558.94 131.889 1542.3 53.1865Z" fill="#DD4814"/>
</g>
<g filter="url(#filter7_d_4039_191)">
<path fill-rule="evenodd" clip-rule="evenodd" d="M1602.3 -6.81352C1586.39 -82.0875 1654.28 -151.302 1709.61 -204.761C1764.89 -258.171 1834.16 -307.848 1910.98 -305.047C1984.39 -302.37 2032.41 -232.196 2093.08 -190.78C2145.1 -155.269 2202.85 -130.607 2240.5 -80.1086C2284.69 -20.8341 2336.45 46.4446 2324.31 119.375C2312.16 192.388 2236.47 232.978 2180.35 281.237C2127.94 326.306 2078.48 382.881 2009.71 389.9C1941.89 396.823 1869.89 367.817 1823.73 317.639C1782.43 272.738 1817.68 194.129 1783.29 143.739C1737.95 77.2956 1618.94 71.8894 1602.3 -6.81352Z" fill="#ED6536"/>
</g>
<g filter="url(#filter8_d_4039_191)">
<path fill-rule="evenodd" clip-rule="evenodd" d="M75.6723 1312.5C34.1056 1327.82 -10.4603 1324.25 -53.9376 1315.75C-97.0133 1307.32 -134.279 1287.29 -171.572 1264.15C-222.706 1232.41 -287.277 1211.69 -310.825 1156.3C-336.496 1095.93 -324.331 1025.15 -298.904 964.676C-271.625 899.795 -229.333 836.123 -164.595 808.508C-100.844 781.314 -21.0708 784.539 37.8569 821.026C91.5944 854.299 78.9818 939.37 121.816 985.847C163.513 1031.09 260.204 1019.68 275.793 1079.19C290.85 1136.68 223.828 1182.51 185.138 1227.62C154.322 1263.54 120.083 1296.13 75.6723 1312.5Z" fill="#ED6536"/>
</g>
<path d="M961.106 666.624C1030.43 666.624 1086.62 610.428 1086.62 541.106C1086.62 471.784 1030.43 415.588 961.106 415.588C891.785 415.588 835.588 471.784 835.588 541.106C835.588 610.428 891.785 666.624 961.106 666.624Z" fill="#DD4814"/>
<path fill-rule="evenodd" clip-rule="evenodd" d="M875.76 524.345C866.502 524.345 858.998 531.847 858.998 541.106C858.998 550.361 866.502 557.868 875.76 557.868C885.018 557.868 892.52 550.361 892.52 541.106C892.511 531.847 885.014 524.345 875.76 524.345ZM995.412 600.511C987.394 605.141 984.647 615.381 989.277 623.395C993.902 631.409 1004.15 634.16 1012.16 629.526C1020.18 624.905 1022.93 614.661 1018.3 606.642C1013.67 598.637 1003.42 595.886 995.412 600.511ZM912.16 541.11C912.16 524.549 920.387 509.918 932.974 501.057L920.725 480.538C906.059 490.34 895.151 505.314 890.621 522.852C895.911 527.174 899.295 533.743 899.295 541.11C899.295 548.469 895.911 555.039 890.621 559.36C895.147 576.907 906.055 591.877 920.725 601.678L932.974 581.155C920.387 572.299 912.16 557.672 912.16 541.11ZM961.108 492.154C986.682 492.154 1007.66 511.762 1009.86 536.763L1033.74 536.407C1032.57 517.949 1024.51 501.378 1012.11 489.195C1005.74 491.598 998.38 491.23 992.019 487.563C985.645 483.888 981.649 477.683 980.56 470.949C974.364 469.24 967.847 468.307 961.104 468.307C949.519 468.307 938.567 471.023 928.848 475.839L940.494 496.705C946.755 493.794 953.741 492.154 961.108 492.154ZM961.108 590.054C953.745 590.054 946.755 588.418 940.494 585.503L928.848 606.364C938.571 611.185 949.527 613.91 961.108 613.91C967.847 613.91 974.364 612.973 980.555 611.259C981.649 604.525 985.645 598.324 992.019 594.645C998.384 590.97 1005.74 590.605 1012.11 593.013C1024.51 580.83 1032.57 564.259 1033.74 545.797L1009.86 545.445C1007.66 570.455 986.678 590.059 961.108 590.059V590.054ZM995.408 481.697C1003.43 486.326 1013.67 483.584 1018.29 475.566C1022.92 467.552 1020.18 457.307 1012.16 452.676C1004.15 448.05 993.902 450.798 989.272 458.817C984.651 466.827 987.398 477.071 995.408 481.692V481.697Z" fill="white"/>
<path fill-rule="evenodd" clip-rule="evenodd" d="M961.804 500.764L952.568 510.23L951.343 510.086L953.701 503.824L944.248 513.275L946.083 529.541L945.004 520.102L944.248 513.275L936.625 517.924L932.764 525.817L927.489 534.881L932.473 547.194L934.076 556.891L936.057 561.625L932.72 565.608L929.212 569.852H938.812L940.021 561.204L943.883 555.29L950.323 556.397L957.421 553.555L962.667 550.873L967.795 554.279L961.646 561.638L955.337 567.583L965.234 567.726L965.259 563.699L972.752 557.751L975.49 561.2L967.608 572.429L977.664 572.49L977.3 566.862L984.494 560.033L980.81 552.561L980.385 543.382L987.761 539.037L991.926 539.919L997.597 537.811L999.212 526.382L990.382 528.964L985.019 537.032L975.942 541.852L963.275 536.715L954.052 529.86L960.084 521.416L957.956 512.583L961.804 500.764Z" fill="white" fill-opacity="0.706"/>
<path fill-rule="evenodd" clip-rule="evenodd" d="M948.239 547.766L957.42 553.554L962.665 550.868L948.239 547.766ZM938.197 550.061L940.02 561.199L943.882 555.285L938.197 550.061ZM980.81 552.556L975.491 561.199L984.494 560.032L980.81 552.556ZM975.491 561.199L967.607 572.428L977.664 572.489L977.296 566.861L975.491 561.199ZM967.794 554.274L961.646 561.637L965.259 563.698L967.794 554.274ZM961.646 561.637L955.336 567.577L965.233 567.725L961.646 561.637ZM932.72 565.603L929.211 569.847H938.812L932.72 565.603Z" fill="#DD8371"/>
<path fill-rule="evenodd" clip-rule="evenodd" d="M944.247 513.276L946.082 529.541L948.313 517.65L944.247 513.276ZM946.082 529.541L954.053 529.859L954.17 524.417L946.082 529.541ZM932.763 525.817L927.488 534.879L936.261 527.852L932.763 525.817ZM927.488 534.879L932.472 547.19L936.261 537.087L927.488 534.879ZM993.762 533.22L987.756 539.035L991.926 539.917L993.762 533.22ZM980.385 543.381L973.303 548.661L980.805 552.558L980.385 543.381ZM973.299 548.661L962.665 550.87L967.792 554.276L973.299 548.661ZM967.792 554.276L965.257 563.7L972.748 557.751L967.792 554.276ZM965.257 563.7L961.644 561.635L965.231 567.727L965.257 563.7ZM962.665 550.87L963.32 544.604L948.238 547.767L962.665 550.87ZM948.238 547.767L938.197 550.063L943.882 555.287L948.238 547.767ZM938.197 550.063L934.074 556.888L940.018 561.205L938.197 550.063ZM940.018 561.205L932.717 565.605L938.809 569.848L940.018 561.201L940.018 561.205ZM984.488 560.034L975.489 561.201L977.294 566.859L984.493 560.029L984.488 560.034Z" fill="#E5AE9B"/>
<path fill-rule="evenodd" clip-rule="evenodd" d="M961.804 500.764L952.568 510.23L957.186 508.486L961.804 500.764ZM952.568 510.23L950.235 509.941L948.312 517.648L957.956 512.582L952.568 510.23ZM948.312 517.648L946.082 529.541L954.169 524.416L948.312 517.648ZM946.082 529.541L936.625 517.923L936.261 527.852L946.082 529.541ZM936.261 527.852L927.487 534.879L936.261 537.087V527.852ZM936.261 537.087L932.471 547.189L938.198 550.062L936.261 537.087ZM938.198 550.062L949.839 539.843L942.599 537.968L938.198 550.062ZM949.839 539.843L963.275 536.713L954.052 529.859L949.839 539.843ZM936.625 517.923L945.003 520.102L944.246 513.276L936.625 517.923ZM944.246 513.276L950.235 509.941L953.704 503.824L944.246 513.276ZM990.383 528.964L987.758 539.036L993.763 533.221L990.383 528.964ZM993.763 533.221L991.927 539.917L997.594 537.808L993.763 533.221ZM987.758 539.036L985.02 537.029L980.386 543.38L987.758 539.036ZM980.386 543.38L975.942 541.85L973.304 548.665L980.386 543.38ZM973.3 548.665L963.321 544.608L962.666 550.873L973.304 548.665H973.3ZM948.238 547.767L950.322 556.397L957.42 553.555L948.238 547.767ZM980.806 552.557L967.793 554.275L972.749 557.751L975.491 561.2L980.811 552.557H980.806ZM934.076 556.887L936.056 561.621L932.719 565.604L940.02 561.2L934.076 556.887Z" fill="#EBCFC6"/>
<path fill-rule="evenodd" clip-rule="evenodd" d="M957.186 508.484L952.569 510.229L957.957 512.583L957.186 508.484ZM950.235 509.942L944.246 513.274L948.313 517.648L950.235 509.942ZM948.313 517.648L954.168 524.415L960.083 521.414L948.313 517.648ZM936.624 517.923L946.082 529.539L945.003 520.102L936.624 517.923ZM936.624 517.923L932.763 525.816L936.261 527.851L936.624 517.923ZM936.261 527.851L936.26 537.087L946.082 529.539L936.261 527.851ZM946.082 529.539L949.841 539.842L954.052 529.858L946.082 529.539ZM949.841 539.842L963.321 544.603L963.275 536.712L949.841 539.842ZM949.841 539.842L938.199 550.061L948.239 547.766L949.841 539.842ZM948.239 547.766L943.882 555.286L950.321 556.396L948.239 547.766ZM938.199 550.061L932.471 547.189L934.074 556.887L938.199 550.061ZM938.199 550.061L942.599 537.967L936.26 537.087L938.199 550.061ZM963.32 544.607L973.304 548.664L975.942 541.85L963.321 544.603L963.32 544.607ZM975.942 541.85L980.385 543.38L985.019 537.029L975.942 541.85ZM985.019 537.029L987.757 539.035L990.382 528.963L985.019 537.029ZM973.304 548.664L967.794 554.275L980.81 552.556L973.304 548.664ZM999.212 526.379L993.762 533.219L997.598 537.807L999.212 526.379Z" fill="#EDD9D3"/>
<path fill-rule="evenodd" clip-rule="evenodd" d="M961.804 500.764L957.185 508.485L957.957 512.583L961.804 500.764ZM957.957 512.583L948.313 517.65L960.084 521.415L957.957 512.583ZM960.084 521.415L954.169 524.416L954.052 529.859L960.084 521.415ZM953.701 503.824L950.235 509.943L951.328 510.13L953.701 503.824ZM999.212 526.379L990.383 528.962L993.763 533.219L999.212 526.379ZM946.081 529.54L936.26 537.087L949.841 539.842L946.081 529.54ZM949.841 539.842L948.237 547.767L963.32 544.603L949.841 539.842ZM963.32 544.603L975.941 541.85L963.275 536.713L963.32 544.603Z" fill="white"/>
</g>
<defs>
<filter id="filter0_b_4039_191" x="-72.3" y="-72.3" width="2064.6" height="1224.6" filterUnits="userSpaceOnUse" color-interpolation-filters="sRGB">
<feFlood flood-opacity="0" result="BackgroundImageFix"/>
<feGaussianBlur in="BackgroundImageFix" stdDeviation="36.15"/>
<feComposite in2="SourceAlpha" operator="in" result="effect1_backgroundBlur_4039_191"/>
<feBlend mode="normal" in="SourceGraphic" in2="effect1_backgroundBlur_4039_191" result="shape"/>
</filter>
<filter id="filter1_f_4039_191" x="800.195" y="-263.16" width="1600.72" height="1319.88" filterUnits="userSpaceOnUse" color-interpolation-filters="sRGB">
<feFlood flood-opacity="0" result="BackgroundImageFix"/>
<feBlend mode="normal" in="SourceGraphic" in2="BackgroundImageFix" result="shape"/>
<feGaussianBlur stdDeviation="100" result="effect1_foregroundBlur_4039_191"/>
</filter>
<filter id="filter2_f_4039_191" x="-266.884" y="-26.3379" width="1426.74" height="1572.63" filterUnits="userSpaceOnUse" color-interpolation-filters="sRGB">
<feFlood flood-opacity="0" result="BackgroundImageFix"/>
<feBlend mode="normal" in="SourceGraphic" in2="BackgroundImageFix" result="shape"/>
<feGaussianBlur stdDeviation="100" result="effect1_foregroundBlur_4039_191"/>
</filter>
<filter id="filter3_d_4039_191" x="-231.526" y="649.849" width="680.041" height="635.772" filterUnits="userSpaceOnUse" color-interpolation-filters="sRGB">
<feFlood flood-opacity="0" result="BackgroundImageFix"/>
<feColorMatrix in="SourceAlpha" type="matrix" values="0 0 0 0 0 0 0 0 0 0 0 0 0 0 0 0 0 0 127 0" result="hardAlpha"/>
<feOffset dx="2" dy="12"/>
<feGaussianBlur stdDeviation="17.05"/>
<feComposite in2="hardAlpha" operator="out"/>
<feColorMatrix type="matrix" values="0 0 0 0 0 0 0 0 0 0 0 0 0 0 0 0 0 0 0.25 0"/>
<feBlend mode="normal" in2="BackgroundImageFix" result="effect1_dropShadow_4039_191"/>
<feBlend mode="normal" in="SourceGraphic" in2="effect1_dropShadow_4039_191" result="shape"/>
</filter>
<filter id="filter4_d_4039_191" x="-291.526" y="709.849" width="680.041" height="635.772" filterUnits="userSpaceOnUse" color-interpolation-filters="sRGB">
<feFlood flood-opacity="0" result="BackgroundImageFix"/>
<feColorMatrix in="SourceAlpha" type="matrix" values="0 0 0 0 0 0 0 0 0 0 0 0 0 0 0 0 0 0 127 0" result="hardAlpha"/>
<feOffset dx="2" dy="12"/>
<feGaussianBlur stdDeviation="17.05"/>
<feComposite in2="hardAlpha" operator="out"/>
<feColorMatrix type="matrix" values="0 0 0 0 0 0 0 0 0 0 0 0 0 0 0 0 0 0 0.25 0"/>
<feBlend mode="normal" in2="BackgroundImageFix" result="effect1_dropShadow_4039_191"/>
<feBlend mode="normal" in="SourceGraphic" in2="effect1_dropShadow_4039_191" result="shape"/>
</filter>
<filter id="filter5_d_4039_191" x="1447.85" y="-207.26" width="794.361" height="764.274" filterUnits="userSpaceOnUse" color-interpolation-filters="sRGB">
<feFlood flood-opacity="0" result="BackgroundImageFix"/>
<feColorMatrix in="SourceAlpha" type="matrix" values="0 0 0 0 0 0 0 0 0 0 0 0 0 0 0 0 0 0 127 0" result="hardAlpha"/>
<feOffset dx="2" dy="12"/>
<feGaussianBlur stdDeviation="17.05"/>
<feComposite in2="hardAlpha" operator="out"/>
<feColorMatrix type="matrix" values="0 0 0 0 0 0 0 0 0 0 0 0 0 0 0 0 0 0 0.25 0"/>
<feBlend mode="normal" in2="BackgroundImageFix" result="effect1_dropShadow_4039_191"/>
<feBlend mode="normal" in="SourceGraphic" in2="effect1_dropShadow_4039_191" result="shape"/>
</filter>
<filter id="filter6_d_4039_191" x="1507.85" y="-267.26" width="794.361" height="764.274" filterUnits="userSpaceOnUse" color-interpolation-filters="sRGB">
<feFlood flood-opacity="0" result="BackgroundImageFix"/>
<feColorMatrix in="SourceAlpha" type="matrix" values="0 0 0 0 0 0 0 0 0 0 0 0 0 0 0 0 0 0 127 0" result="hardAlpha"/>
<feOffset dx="2" dy="12"/>
<feGaussianBlur stdDeviation="17.05"/>
<feComposite in2="hardAlpha" operator="out"/>
<feColorMatrix type="matrix" values="0 0 0 0 0 0 0 0 0 0 0 0 0 0 0 0 0 0 0.25 0"/>
<feBlend mode="normal" in2="BackgroundImageFix" result="effect1_dropShadow_4039_191"/>
<feBlend mode="normal" in="SourceGraphic" in2="effect1_dropShadow_4039_191" result="shape"/>
</filter>
<filter id="filter7_d_4039_191" x="1567.85" y="-327.26" width="794.361" height="764.274" filterUnits="userSpaceOnUse" color-interpolation-filters="sRGB">
<feFlood flood-opacity="0" result="BackgroundImageFix"/>
<feColorMatrix in="SourceAlpha" type="matrix" values="0 0 0 0 0 0 0 0 0 0 0 0 0 0 0 0 0 0 127 0" result="hardAlpha"/>
<feOffset dx="2" dy="12"/>
<feGaussianBlur stdDeviation="17.05"/>
<feComposite in2="hardAlpha" operator="out"/>
<feColorMatrix type="matrix" values="0 0 0 0 0 0 0 0 0 0 0 0 0 0 0 0 0 0 0.25 0"/>
<feBlend mode="normal" in2="BackgroundImageFix" result="effect1_dropShadow_4039_191"/>
<feBlend mode="normal" in="SourceGraphic" in2="effect1_dropShadow_4039_191" result="shape"/>
</filter>
<filter id="filter8_d_4039_191" x="-357.153" y="768.421" width="671.212" height="600.737" filterUnits="userSpaceOnUse" color-interpolation-filters="sRGB">
<feFlood flood-opacity="0" result="BackgroundImageFix"/>
<feColorMatrix in="SourceAlpha" type="matrix" values="0 0 0 0 0 0 0 0 0 0 0 0 0 0 0 0 0 0 127 0" result="hardAlpha"/>
<feOffset dx="2" dy="12"/>
<feGaussianBlur stdDeviation="17.05"/>
<feComposite in2="hardAlpha" operator="out"/>
<feColorMatrix type="matrix" values="0 0 0 0 0 0 0 0 0 0 0 0 0 0 0 0 0 0 0.25 0"/>
<feBlend mode="normal" in2="BackgroundImageFix" result="effect1_dropShadow_4039_191"/>
<feBlend mode="normal" in="SourceGraphic" in2="effect1_dropShadow_4039_191" result="shape"/>
</filter>
<clipPath id="clip0_4039_191">
<rect width="1920" height="1080" fill="white"/>
</clipPath>
</defs>
</svg>
