<svg width="1920" height="1080" viewBox="0 0 1920 1080" fill="none" xmlns="http://www.w3.org/2000/svg">
<g clip-path="url(#clip0_4039_143)" filter="url(#filter0_b_4039_143)">
<rect width="1920" height="1080" fill="#0B0C0F"/>
<g filter="url(#filter1_f_4039_143)">
<path fill-rule="evenodd" clip-rule="evenodd" d="M1005.52 311.019C974.913 211.197 1082.34 124.308 1170.07 57.3695C1257.71 -9.50646 1368.55 -70.6495 1494.91 -62.4116C1615.67 -54.5387 1698.72 40.4906 1800.85 98.494C1888.42 148.228 1984.75 184.051 2049.6 252.619C2125.71 333.103 2214.73 424.55 2199.12 519.629C2183.49 614.815 2061.56 663.641 1972.23 723.701C1888.81 779.793 1810.91 851.172 1698.36 856.311C1587.35 861.379 1467.34 819.004 1388.54 750.352C1318.03 688.921 1371.27 587.754 1311.79 519.522C1233.35 429.553 1037.53 415.388 1005.52 311.019Z" fill="#16181D"/>
</g>
<g filter="url(#filter2_f_4039_143)">
<path fill-rule="evenodd" clip-rule="evenodd" d="M678.523 1337.59C612.813 1358.69 536.736 1338.51 461.107 1308.08C386.176 1277.93 317.768 1224.58 248.438 1164.55C153.374 1082.23 38.7766 1019.72 -16.4699 894.545C-76.6938 758.097 -76.1111 610.026 -50.2893 487.731C-22.5873 356.532 30.7437 232.141 132.028 191.242C231.769 150.967 367.054 180.309 476.581 274.981C576.461 361.315 579.144 539.858 664.371 651.386C747.336 759.953 907.002 762.72 950.003 894.501C991.536 1021.78 891.528 1101.02 839.042 1186.69C797.237 1254.92 748.728 1315.04 678.523 1337.59Z" fill="#16181D"/>
</g>
<path d="M294.204 1313.54C349.977 1334.79 406.602 1348.81 456.071 1332.65C508.884 1315.41 545.717 1270.95 577.455 1221.05C586.476 1206.86 597.315 1192.89 608.382 1178.62C609.467 1177.22 610.555 1175.81 611.644 1174.41C623.809 1158.69 636.046 1142.58 646.118 1125.54C666.293 1091.41 677.845 1053.4 662.946 1006.99C647.502 958.874 609.79 934.804 568.824 913.114C563.396 910.24 557.913 907.409 552.415 904.569C516.279 885.907 479.488 866.906 453.509 833.439C425.748 797.676 410.458 751.93 395.297 706.573C393.631 701.589 391.967 696.609 390.288 691.648C373.381 641.698 354.963 593.6 318.029 562.553C237.509 494.864 136.947 474.803 61.9507 505.279C23.7886 520.787 -5.5227 551.413 -28.017 590.008C-50.5101 628.6 -66.2428 675.253 -77.2192 722.995C-97.6949 812.055 -99.7128 919.659 -56.333 1018.24C-36.3857 1063.57 -5.21651 1097.28 29.6028 1126.96C47.008 1141.8 65.3454 1155.65 83.6521 1169.43L85.1065 1170.52C102.938 1183.94 120.716 1197.32 137.621 1211.56C188.4 1254.32 238.718 1292.39 294.204 1313.54Z" fill="#282B34" stroke="#434856" stroke-width="3"/>
<path d="M1406.11 37.7774C1368.83 65.1625 1327.19 96.7531 1298.23 131.877C1269.26 167.009 1252.74 205.972 1266.31 247.959C1273.42 269.965 1289.4 287.182 1310.21 301.781C1331.01 316.374 1356.79 328.44 1383.67 340.093C1390.15 342.899 1396.69 345.68 1403.24 348.467C1423.95 357.278 1444.8 366.148 1464.21 376.034C1489.77 389.043 1512.7 403.74 1529.39 422.209C1553.41 448.787 1555.95 481.301 1558.5 514.095C1558.63 515.687 1558.75 517.28 1558.88 518.873C1561.61 553.121 1565.51 587.306 1596.32 613.285C1664.3 670.612 1767.42 706.335 1862.61 702.718C1942.44 699.684 2001.81 658.992 2059.9 619.171C2072.16 610.771 2084.35 602.41 2096.67 594.449C2113.24 583.745 2131.14 573.49 2149.17 563.159C2151.78 561.666 2154.38 560.172 2156.99 558.675C2177.62 546.824 2198.19 534.78 2216.79 521.805C2253.96 495.885 2283.6 466.04 2290.13 426.169C2296.64 386.399 2280.46 347.406 2254.67 310.145C2230.06 274.596 2196.53 240.389 2165.11 208.334C2163.59 206.783 2162.08 205.237 2160.57 203.697C2132.53 175.066 2097.81 153.228 2060.78 133.38C2044.01 124.39 2026.75 115.797 2009.41 107.166C2007.61 106.268 2005.8 105.37 2004 104.471C1984.84 94.9244 1965.63 85.2746 1946.89 74.9144C1925.07 62.8502 1904.24 48.8797 1883.62 34.5714C1878.88 31.2849 1874.16 27.9795 1869.43 24.6756C1853.61 13.6085 1837.81 2.55641 1821.72 -7.72511C1779.93 -34.4383 1736.01 -56.0942 1684.03 -59.6844C1575.49 -67.1809 1480.75 -17.0416 1406.11 37.7774Z" fill="#282B34" stroke="#434856" stroke-width="3"/>
<path d="M201.776 1258.22C248.854 1274.2 296.858 1284.27 339.474 1269.93C384.96 1254.62 417.453 1217.51 445.719 1176.11C453.746 1164.36 463.318 1152.72 473.098 1140.84C474.057 1139.67 475.018 1138.51 475.98 1137.34C486.729 1124.25 497.556 1110.84 506.559 1096.71C524.589 1068.42 535.403 1037.11 523.76 999.536C511.684 960.563 479.957 941.811 445.549 925.135C440.983 922.922 436.371 920.745 431.748 918.564C401.369 904.227 370.522 889.669 349.219 863.109C326.443 834.711 314.516 797.901 302.664 761.323C301.363 757.307 300.062 753.294 298.749 749.294C285.525 709.04 270.936 670.211 240.084 645.738C172.939 592.479 87.5765 578.548 22.8547 605.165C-42.9864 632.241 -80.1375 707.68 -101.115 785.861C-120.711 858.893 -125.014 946.636 -90.3242 1025.96C-74.3591 1062.47 -48.5301 1089.22 -19.5235 1112.57C-5.02425 1124.25 10.2925 1135.09 25.5752 1145.87L26.7873 1146.73C41.6763 1157.23 56.5118 1167.69 70.5817 1178.88C112.874 1212.49 154.912 1242.31 201.776 1258.22Z" fill="#383C48" stroke="#434856" stroke-width="3"/>
<g filter="url(#filter3_d_4039_143)">
<path fill-rule="evenodd" clip-rule="evenodd" d="M213.583 1230.07C171.886 1245.12 126.602 1240.04 82.2781 1229.76C38.3641 1219.58 0.00388405 1197.26 -38.4733 1171.63C-91.2322 1136.48 -157.293 1112.63 -182.77 1053.2C-210.543 988.417 -200.26 913.695 -176.232 850.281C-150.455 782.251 -109.423 715.936 -44.5907 688.518C19.2532 661.518 100.221 667.249 161.018 707.657C216.46 744.506 206.136 834.379 250.907 884.917C294.489 934.115 392.184 924.807 409.711 988.391C426.64 1049.81 360.02 1096.48 322.102 1143.2C291.9 1180.42 258.133 1213.99 213.583 1230.07Z" fill="#434856"/>
</g>
<g filter="url(#filter4_d_4039_143)">
<path fill-rule="evenodd" clip-rule="evenodd" d="M153.583 1290.07C111.886 1305.12 66.6016 1300.04 22.2781 1289.76C-21.6359 1279.58 -59.9961 1257.26 -98.4733 1231.63C-151.232 1196.48 -217.293 1172.63 -242.77 1113.2C-270.543 1048.42 -260.26 973.695 -236.232 910.281C-210.455 842.251 -169.423 775.936 -104.591 748.518C-40.7468 721.518 40.2207 727.249 101.018 767.657C156.46 804.506 146.136 894.379 190.907 944.917C234.489 994.115 332.184 984.807 349.711 1048.39C366.64 1109.81 300.02 1156.48 262.102 1203.2C231.9 1240.42 198.133 1273.99 153.583 1290.07Z" fill="#505668"/>
</g>
<path d="M1530.59 -17.5563C1498.72 10.5621 1463.1 42.9574 1437.97 78.4873C1412.83 114.024 1398.01 152.924 1408.14 193.969C1418.76 237.027 1459.5 260.408 1503.61 281.904C1508.94 284.501 1514.32 287.071 1519.72 289.646C1536.74 297.779 1553.87 305.958 1569.78 315.183C1590.71 327.319 1609.39 341.184 1622.77 358.943C1642.06 384.54 1643.27 416.647 1644.49 449.029C1644.55 450.592 1644.61 452.155 1644.67 453.719C1645.99 487.455 1648.28 521.151 1673.31 546.029C1728.49 600.881 1813.64 633.388 1893.29 627.149C1933.81 623.976 1968.34 607.332 2000.27 585.627C2021.03 571.515 2040.79 555.181 2060.37 538.994C2070.84 530.341 2081.26 521.731 2091.75 513.524C2105.86 502.482 2121.08 491.847 2136.41 481.13C2138.62 479.581 2140.84 478.031 2143.06 476.478C2160.6 464.186 2178.1 451.701 2193.98 438.35C2225.74 411.66 2251.25 381.348 2257.79 341.84C2264.32 302.425 2251.94 264.356 2231.44 228.202C2211.9 193.728 2184.87 160.829 2159.55 130.012C2158.33 128.52 2157.11 127.033 2155.89 125.551C2133.27 97.9908 2104.88 77.3428 2074.52 58.7373C2060.78 50.3126 2046.61 42.2941 2032.39 34.2451C2030.91 33.4068 2029.43 32.5682 2027.94 31.7287C2012.22 22.8235 1996.48 13.8217 1981.14 4.10587C1963.29 -7.20246 1946.32 -20.4243 1929.51 -33.9961C1925.66 -37.1113 1921.81 -40.246 1917.96 -43.38C1905.07 -53.8831 1892.19 -64.3779 1879.04 -74.1014C1844.91 -99.3601 1808.78 -119.614 1765.38 -121.722C1674.87 -126.12 1594.35 -73.8152 1530.59 -17.5563Z" fill="#383C48" stroke="#434856" stroke-width="3"/>
<g filter="url(#filter5_d_4039_143)">
<path fill-rule="evenodd" clip-rule="evenodd" d="M1482.3 113.186C1466.39 37.9125 1534.28 -31.3021 1589.61 -84.7614C1644.89 -138.171 1714.16 -187.848 1790.98 -185.047C1864.39 -182.37 1912.41 -112.196 1973.08 -70.7803C2025.1 -35.2689 2082.85 -10.6066 2120.5 39.8914C2164.69 99.1659 2216.45 166.445 2204.31 239.375C2192.16 312.388 2116.47 352.978 2060.35 401.237C2007.94 446.306 1958.48 502.881 1889.71 509.9C1821.89 516.823 1749.89 487.817 1703.73 437.639C1662.43 392.738 1697.68 314.129 1663.29 263.739C1617.95 197.296 1498.94 191.889 1482.3 113.186Z" fill="#434856"/>
</g>
<g filter="url(#filter6_d_4039_143)">
<path fill-rule="evenodd" clip-rule="evenodd" d="M1542.3 53.1865C1526.39 -22.0875 1594.28 -91.3021 1649.61 -144.761C1704.89 -198.171 1774.16 -247.848 1850.98 -245.047C1924.39 -242.37 1972.41 -172.196 2033.08 -130.78C2085.1 -95.2689 2142.85 -70.6066 2180.5 -20.1086C2224.69 39.1659 2276.45 106.445 2264.31 179.375C2252.16 252.388 2176.47 292.978 2120.35 341.237C2067.94 386.306 2018.48 442.881 1949.71 449.9C1881.89 456.823 1809.89 427.817 1763.73 377.639C1722.43 332.738 1757.68 254.129 1723.29 203.739C1677.95 137.296 1558.94 131.889 1542.3 53.1865Z" fill="#505668"/>
</g>
<g filter="url(#filter7_d_4039_143)">
<path fill-rule="evenodd" clip-rule="evenodd" d="M1602.3 -6.8145C1586.39 -82.0884 1654.28 -151.303 1709.61 -204.762C1764.89 -258.172 1834.16 -307.849 1910.98 -305.048C1984.39 -302.371 2032.41 -232.197 2093.08 -190.781C2145.1 -155.27 2202.85 -130.608 2240.5 -80.1096C2284.69 -20.8351 2336.45 46.4436 2324.31 119.374C2312.16 192.387 2236.47 232.977 2180.35 281.236C2127.94 326.305 2078.48 382.88 2009.71 389.899C1941.89 396.822 1869.89 367.816 1823.73 317.638C1782.43 272.737 1817.68 194.128 1783.29 143.738C1737.95 77.2946 1618.94 71.8884 1602.3 -6.8145Z" fill="#596073"/>
</g>
<g filter="url(#filter8_d_4039_143)">
<path fill-rule="evenodd" clip-rule="evenodd" d="M75.6723 1312.5C34.1056 1327.82 -10.4603 1324.25 -53.9376 1315.75C-97.0133 1307.32 -134.279 1287.29 -171.572 1264.15C-222.706 1232.41 -287.277 1211.69 -310.825 1156.3C-336.496 1095.93 -324.331 1025.15 -298.904 964.676C-271.625 899.795 -229.333 836.123 -164.595 808.508C-100.844 781.314 -21.0708 784.539 37.8569 821.026C91.5944 854.299 78.9818 939.37 121.816 985.847C163.513 1031.09 260.204 1019.68 275.793 1079.19C290.85 1136.68 223.828 1182.51 185.138 1227.62C154.322 1263.54 120.083 1296.13 75.6723 1312.5Z" fill="#596073"/>
</g>
<g clip-path="url(#clip1_4039_143)">
<path d="M960 668C1030.69 668 1088 610.692 1088 540C1088 469.308 1030.69 412 960 412C889.308 412 832 469.308 832 540C832 610.692 889.308 668 960 668Z" fill="#404552"/>
<path d="M1002.3 556.9C986.061 556.9 972.41 568.436 968.076 583.724C967.161 586.951 966.532 588.057 965.301 590.199C963.714 592.961 960.493 596.95 956.052 599.449C952.438 601.482 949.325 603.211 944.672 602.51C943.46 602.328 941.314 601.99 939.167 600.755C935.745 598.785 934.616 597.055 931.999 592.051C932.372 597.392 931.684 599.34 934.311 608.7C939.541 627.333 959.638 641.999 983.334 641.999C1000.9 641.999 1017.18 634.678 1026.34 623.501C1029.69 619.413 1032.21 616.188 1034.67 610.551C1036.9 605.422 1037.44 598.847 1037.44 592.975C1037.45 573.036 1021.71 556.901 1002.3 556.901L1002.3 556.9Z" fill="white"/>
<path d="M924.212 568.184C932.332 554.121 929.167 536.53 918.094 525.133C915.757 522.727 915.114 521.629 913.874 519.493C912.276 516.737 910.432 511.953 910.488 506.857C910.535 502.712 910.594 499.15 913.527 495.471C914.291 494.513 915.656 492.824 917.8 491.582C921.217 489.603 923.279 489.49 928.922 489.725C924.11 487.379 922.767 485.808 913.347 483.404C894.595 478.616 871.846 488.688 859.998 509.209C851.215 524.422 849.415 542.183 854.514 555.704C856.379 560.649 857.91 564.447 861.567 569.388C864.893 573.884 870.314 577.645 875.399 580.583C892.664 590.557 914.508 584.991 924.214 568.18L924.212 568.184Z" fill="white"/>
<path d="M953.487 494.916C961.606 508.979 978.422 515.033 993.829 511.143C997.081 510.321 998.354 510.313 1000.82 510.308C1004.01 510.302 1009.08 511.097 1013.46 513.694C1017.03 515.807 1020.08 517.639 1021.8 522.019C1022.25 523.159 1023.03 525.186 1023.03 527.663C1023.04 531.612 1022.1 533.454 1019.08 538.224C1023.52 535.23 1025.55 534.852 1032.34 527.896C1045.86 514.051 1048.52 489.313 1036.67 468.792C1027.88 453.579 1013.4 443.14 999.145 440.795C993.93 439.937 989.875 439.365 983.767 440.061C978.21 440.694 972.243 443.508 967.157 446.442C949.886 456.407 943.784 478.108 953.49 494.919L953.487 494.916Z" fill="white"/>
</g>
</g>
<defs>
<filter id="filter0_b_4039_143" x="-72.3" y="-72.3" width="2064.6" height="1224.6" filterUnits="userSpaceOnUse" color-interpolation-filters="sRGB">
<feFlood flood-opacity="0" result="BackgroundImageFix"/>
<feGaussianBlur in="BackgroundImageFix" stdDeviation="36.15"/>
<feComposite in2="SourceAlpha" operator="in" result="effect1_backgroundBlur_4039_143"/>
<feBlend mode="normal" in="SourceGraphic" in2="effect1_backgroundBlur_4039_143" result="shape"/>
</filter>
<filter id="filter1_f_4039_143" x="800.195" y="-263.159" width="1600.72" height="1319.88" filterUnits="userSpaceOnUse" color-interpolation-filters="sRGB">
<feFlood flood-opacity="0" result="BackgroundImageFix"/>
<feBlend mode="normal" in="SourceGraphic" in2="BackgroundImageFix" result="shape"/>
<feGaussianBlur stdDeviation="100" result="effect1_foregroundBlur_4039_143"/>
</filter>
<filter id="filter2_f_4039_143" x="-266.884" y="-26.3379" width="1426.74" height="1572.63" filterUnits="userSpaceOnUse" color-interpolation-filters="sRGB">
<feFlood flood-opacity="0" result="BackgroundImageFix"/>
<feBlend mode="normal" in="SourceGraphic" in2="BackgroundImageFix" result="shape"/>
<feGaussianBlur stdDeviation="100" result="effect1_foregroundBlur_4039_143"/>
</filter>
<filter id="filter3_d_4039_143" x="-231.526" y="649.848" width="680.041" height="635.772" filterUnits="userSpaceOnUse" color-interpolation-filters="sRGB">
<feFlood flood-opacity="0" result="BackgroundImageFix"/>
<feColorMatrix in="SourceAlpha" type="matrix" values="0 0 0 0 0 0 0 0 0 0 0 0 0 0 0 0 0 0 127 0" result="hardAlpha"/>
<feOffset dx="2" dy="12"/>
<feGaussianBlur stdDeviation="17.05"/>
<feComposite in2="hardAlpha" operator="out"/>
<feColorMatrix type="matrix" values="0 0 0 0 0 0 0 0 0 0 0 0 0 0 0 0 0 0 0.25 0"/>
<feBlend mode="normal" in2="BackgroundImageFix" result="effect1_dropShadow_4039_143"/>
<feBlend mode="normal" in="SourceGraphic" in2="effect1_dropShadow_4039_143" result="shape"/>
</filter>
<filter id="filter4_d_4039_143" x="-291.526" y="709.848" width="680.041" height="635.772" filterUnits="userSpaceOnUse" color-interpolation-filters="sRGB">
<feFlood flood-opacity="0" result="BackgroundImageFix"/>
<feColorMatrix in="SourceAlpha" type="matrix" values="0 0 0 0 0 0 0 0 0 0 0 0 0 0 0 0 0 0 127 0" result="hardAlpha"/>
<feOffset dx="2" dy="12"/>
<feGaussianBlur stdDeviation="17.05"/>
<feComposite in2="hardAlpha" operator="out"/>
<feColorMatrix type="matrix" values="0 0 0 0 0 0 0 0 0 0 0 0 0 0 0 0 0 0 0.25 0"/>
<feBlend mode="normal" in2="BackgroundImageFix" result="effect1_dropShadow_4039_143"/>
<feBlend mode="normal" in="SourceGraphic" in2="effect1_dropShadow_4039_143" result="shape"/>
</filter>
<filter id="filter5_d_4039_143" x="1447.85" y="-207.26" width="794.361" height="764.274" filterUnits="userSpaceOnUse" color-interpolation-filters="sRGB">
<feFlood flood-opacity="0" result="BackgroundImageFix"/>
<feColorMatrix in="SourceAlpha" type="matrix" values="0 0 0 0 0 0 0 0 0 0 0 0 0 0 0 0 0 0 127 0" result="hardAlpha"/>
<feOffset dx="2" dy="12"/>
<feGaussianBlur stdDeviation="17.05"/>
<feComposite in2="hardAlpha" operator="out"/>
<feColorMatrix type="matrix" values="0 0 0 0 0 0 0 0 0 0 0 0 0 0 0 0 0 0 0.25 0"/>
<feBlend mode="normal" in2="BackgroundImageFix" result="effect1_dropShadow_4039_143"/>
<feBlend mode="normal" in="SourceGraphic" in2="effect1_dropShadow_4039_143" result="shape"/>
</filter>
<filter id="filter6_d_4039_143" x="1507.85" y="-267.26" width="794.361" height="764.274" filterUnits="userSpaceOnUse" color-interpolation-filters="sRGB">
<feFlood flood-opacity="0" result="BackgroundImageFix"/>
<feColorMatrix in="SourceAlpha" type="matrix" values="0 0 0 0 0 0 0 0 0 0 0 0 0 0 0 0 0 0 127 0" result="hardAlpha"/>
<feOffset dx="2" dy="12"/>
<feGaussianBlur stdDeviation="17.05"/>
<feComposite in2="hardAlpha" operator="out"/>
<feColorMatrix type="matrix" values="0 0 0 0 0 0 0 0 0 0 0 0 0 0 0 0 0 0 0.25 0"/>
<feBlend mode="normal" in2="BackgroundImageFix" result="effect1_dropShadow_4039_143"/>
<feBlend mode="normal" in="SourceGraphic" in2="effect1_dropShadow_4039_143" result="shape"/>
</filter>
<filter id="filter7_d_4039_143" x="1567.85" y="-327.261" width="794.361" height="764.274" filterUnits="userSpaceOnUse" color-interpolation-filters="sRGB">
<feFlood flood-opacity="0" result="BackgroundImageFix"/>
<feColorMatrix in="SourceAlpha" type="matrix" values="0 0 0 0 0 0 0 0 0 0 0 0 0 0 0 0 0 0 127 0" result="hardAlpha"/>
<feOffset dx="2" dy="12"/>
<feGaussianBlur stdDeviation="17.05"/>
<feComposite in2="hardAlpha" operator="out"/>
<feColorMatrix type="matrix" values="0 0 0 0 0 0 0 0 0 0 0 0 0 0 0 0 0 0 0.25 0"/>
<feBlend mode="normal" in2="BackgroundImageFix" result="effect1_dropShadow_4039_143"/>
<feBlend mode="normal" in="SourceGraphic" in2="effect1_dropShadow_4039_143" result="shape"/>
</filter>
<filter id="filter8_d_4039_143" x="-357.153" y="768.421" width="671.212" height="600.738" filterUnits="userSpaceOnUse" color-interpolation-filters="sRGB">
<feFlood flood-opacity="0" result="BackgroundImageFix"/>
<feColorMatrix in="SourceAlpha" type="matrix" values="0 0 0 0 0 0 0 0 0 0 0 0 0 0 0 0 0 0 127 0" result="hardAlpha"/>
<feOffset dx="2" dy="12"/>
<feGaussianBlur stdDeviation="17.05"/>
<feComposite in2="hardAlpha" operator="out"/>
<feColorMatrix type="matrix" values="0 0 0 0 0 0 0 0 0 0 0 0 0 0 0 0 0 0 0.25 0"/>
<feBlend mode="normal" in2="BackgroundImageFix" result="effect1_dropShadow_4039_143"/>
<feBlend mode="normal" in="SourceGraphic" in2="effect1_dropShadow_4039_143" result="shape"/>
</filter>
<clipPath id="clip0_4039_143">
<rect width="1920" height="1080" fill="white"/>
</clipPath>
<clipPath id="clip1_4039_143">
<rect width="256" height="256" fill="white" transform="translate(832 412)"/>
</clipPath>
</defs>
</svg>
