<svg width="1920" height="1080" viewBox="0 0 1920 1080" fill="none" xmlns="http://www.w3.org/2000/svg">
<g clip-path="url(#clip0_4039_270)" filter="url(#filter0_b_4039_270)">
<rect width="1920" height="1080" fill="#00111A"/>
<g filter="url(#filter1_f_4039_270)">
<path fill-rule="evenodd" clip-rule="evenodd" d="M1005.52 311.018C974.913 211.196 1082.34 124.307 1170.07 57.3685C1257.71 -9.50743 1368.55 -70.6504 1494.91 -62.4125C1615.67 -54.5397 1698.72 40.4896 1800.85 98.493C1888.42 148.227 1984.75 184.05 2049.6 252.618C2125.71 333.102 2214.73 424.549 2199.12 519.628C2183.49 614.814 2061.56 663.64 1972.23 723.7C1888.81 779.792 1810.91 851.171 1698.36 856.31C1587.35 861.378 1467.34 819.003 1388.54 750.351C1318.03 688.92 1371.27 587.753 1311.79 519.521C1233.35 429.552 1037.53 415.387 1005.52 311.018Z" fill="#002133"/>
</g>
<g filter="url(#filter2_f_4039_270)">
<path fill-rule="evenodd" clip-rule="evenodd" d="M678.523 1337.59C612.813 1358.69 536.736 1338.5 461.107 1308.08C386.176 1277.93 317.768 1224.58 248.438 1164.55C153.374 1082.23 38.7766 1019.71 -16.4699 894.544C-76.6938 758.096 -76.1111 610.025 -50.2893 487.73C-22.5873 356.531 30.7437 232.14 132.028 191.241C231.769 150.966 367.054 180.308 476.581 274.98C576.461 361.314 579.144 539.857 664.371 651.385C747.336 759.952 907.002 762.719 950.003 894.5C991.536 1021.78 891.528 1101.02 839.042 1186.69C797.237 1254.92 748.728 1315.04 678.523 1337.59Z" fill="#002133"/>
</g>
<path d="M294.204 1313.54C349.977 1334.79 406.602 1348.81 456.071 1332.65C508.884 1315.41 545.717 1270.95 577.455 1221.05C586.476 1206.86 597.315 1192.89 608.382 1178.62C609.467 1177.22 610.555 1175.81 611.644 1174.41C623.809 1158.69 636.046 1142.58 646.118 1125.54C666.293 1091.41 677.845 1053.4 662.946 1006.99C647.502 958.874 609.79 934.804 568.824 913.114C563.396 910.24 557.913 907.409 552.415 904.569C516.279 885.907 479.488 866.906 453.509 833.439C425.748 797.676 410.458 751.93 395.297 706.573C393.631 701.589 391.967 696.609 390.288 691.648C373.381 641.698 354.963 593.6 318.029 562.553C237.509 494.864 136.947 474.803 61.9507 505.279C23.7886 520.787 -5.5227 551.413 -28.017 590.008C-50.5101 628.6 -66.2428 675.253 -77.2192 722.995C-97.6949 812.055 -99.7128 919.659 -56.333 1018.24C-36.3857 1063.57 -5.21651 1097.28 29.6028 1126.96C47.008 1141.8 65.3454 1155.65 83.6521 1169.43L85.1065 1170.52C102.938 1183.94 120.716 1197.32 137.621 1211.56C188.4 1254.32 238.718 1292.39 294.204 1313.54Z" fill="#003857" stroke="#00679E" stroke-width="3"/>
<path d="M1406.11 37.7774C1368.83 65.1625 1327.19 96.7531 1298.23 131.877C1269.26 167.009 1252.74 205.972 1266.31 247.959C1273.42 269.965 1289.4 287.182 1310.21 301.781C1331.01 316.374 1356.79 328.44 1383.67 340.093C1390.15 342.899 1396.69 345.68 1403.24 348.467C1423.95 357.278 1444.8 366.148 1464.21 376.034C1489.77 389.043 1512.7 403.74 1529.39 422.209C1553.41 448.787 1555.95 481.301 1558.5 514.095C1558.63 515.687 1558.75 517.28 1558.88 518.873C1561.61 553.121 1565.51 587.306 1596.32 613.285C1664.3 670.612 1767.42 706.335 1862.61 702.718C1942.44 699.684 2001.81 658.992 2059.9 619.171C2072.16 610.771 2084.35 602.41 2096.67 594.449C2113.24 583.745 2131.14 573.49 2149.17 563.159C2151.78 561.666 2154.38 560.172 2156.99 558.675C2177.62 546.824 2198.19 534.78 2216.79 521.805C2253.96 495.885 2283.6 466.04 2290.13 426.169C2296.64 386.399 2280.46 347.406 2254.67 310.145C2230.06 274.596 2196.53 240.389 2165.11 208.334C2163.59 206.783 2162.08 205.237 2160.57 203.697C2132.53 175.066 2097.81 153.228 2060.78 133.38C2044.01 124.39 2026.75 115.797 2009.41 107.166C2007.61 106.268 2005.8 105.37 2004 104.471C1984.84 94.9244 1965.63 85.2746 1946.89 74.9144C1925.07 62.8502 1904.24 48.8797 1883.62 34.5714C1878.88 31.2849 1874.16 27.9795 1869.43 24.6756C1853.61 13.6085 1837.81 2.55641 1821.72 -7.72511C1779.93 -34.4383 1736.01 -56.0942 1684.03 -59.6844C1575.49 -67.1809 1480.75 -17.0416 1406.11 37.7774Z" fill="#003857" stroke="#00679E" stroke-width="3"/>
<path d="M201.776 1258.22C248.854 1274.2 296.858 1284.27 339.474 1269.92C384.96 1254.61 417.453 1217.51 445.719 1176.11C453.746 1164.35 463.318 1152.72 473.098 1140.84C474.057 1139.67 475.018 1138.5 475.98 1137.33C486.729 1124.25 497.556 1110.84 506.559 1096.71C524.589 1068.42 535.403 1037.11 523.76 999.535C511.684 960.562 479.957 941.81 445.549 925.134C440.983 922.921 436.371 920.744 431.748 918.563C401.369 904.226 370.522 889.669 349.219 863.108C326.443 834.71 314.516 797.9 302.664 761.322C301.363 757.306 300.062 753.293 298.749 749.293C285.525 709.039 270.936 670.21 240.084 645.737C172.939 592.478 87.5765 578.547 22.8547 605.164C-42.9864 632.24 -80.1375 707.679 -101.115 785.86C-120.711 858.892 -125.014 946.635 -90.3242 1025.96C-74.3591 1062.47 -48.5301 1089.22 -19.5235 1112.57C-5.02425 1124.25 10.2925 1135.09 25.5752 1145.87L26.7873 1146.72C41.6763 1157.23 56.5118 1167.69 70.5817 1178.88C112.874 1212.49 154.912 1242.31 201.776 1258.22Z" fill="#00598A" stroke="#00679E" stroke-width="3"/>
<g filter="url(#filter3_d_4039_270)">
<path fill-rule="evenodd" clip-rule="evenodd" d="M213.583 1230.07C171.886 1245.12 126.602 1240.04 82.2781 1229.76C38.3641 1219.58 0.00388405 1197.26 -38.4733 1171.63C-91.2322 1136.48 -157.293 1112.63 -182.77 1053.2C-210.543 988.418 -200.26 913.695 -176.232 850.282C-150.455 782.252 -109.423 715.937 -44.5907 688.519C19.2532 661.519 100.221 667.25 161.018 707.658C216.46 744.507 206.136 834.38 250.907 884.918C294.489 934.116 392.184 924.808 409.711 988.392C426.64 1049.81 360.02 1096.48 322.102 1143.2C291.9 1180.42 258.133 1213.99 213.583 1230.07Z" fill="#0A7CC7"/>
</g>
<g filter="url(#filter4_d_4039_270)">
<path fill-rule="evenodd" clip-rule="evenodd" d="M153.583 1290.07C111.886 1305.12 66.6016 1300.04 22.2781 1289.76C-21.6359 1279.58 -59.9961 1257.26 -98.4733 1231.63C-151.232 1196.48 -217.293 1172.63 -242.77 1113.2C-270.543 1048.42 -260.26 973.695 -236.232 910.282C-210.455 842.252 -169.423 775.937 -104.591 748.519C-40.7468 721.519 40.2207 727.25 101.018 767.658C156.46 804.507 146.136 894.38 190.907 944.918C234.489 994.116 332.184 984.808 349.711 1048.39C366.64 1109.81 300.02 1156.48 262.102 1203.2C231.9 1240.42 198.133 1273.99 153.583 1290.07Z" fill="#009BF9"/>
</g>
<path d="M1530.59 -17.5563C1498.72 10.5621 1463.1 42.9574 1437.97 78.4873C1412.83 114.024 1398.01 152.924 1408.14 193.969C1418.76 237.027 1459.5 260.408 1503.61 281.904C1508.94 284.501 1514.32 287.071 1519.72 289.646C1536.74 297.779 1553.87 305.958 1569.78 315.183C1590.71 327.319 1609.39 341.184 1622.77 358.943C1642.06 384.54 1643.27 416.647 1644.49 449.029C1644.55 450.592 1644.61 452.155 1644.67 453.719C1645.99 487.455 1648.28 521.151 1673.31 546.029C1728.49 600.881 1813.64 633.388 1893.29 627.149C1933.81 623.976 1968.34 607.332 2000.27 585.627C2021.03 571.515 2040.79 555.181 2060.37 538.994C2070.84 530.341 2081.26 521.731 2091.75 513.524C2105.86 502.482 2121.08 491.847 2136.41 481.13C2138.62 479.581 2140.84 478.031 2143.06 476.478C2160.6 464.186 2178.1 451.701 2193.98 438.35C2225.74 411.66 2251.25 381.348 2257.79 341.84C2264.32 302.425 2251.94 264.356 2231.44 228.202C2211.9 193.728 2184.87 160.829 2159.55 130.012C2158.33 128.52 2157.11 127.033 2155.89 125.551C2133.27 97.9908 2104.88 77.3428 2074.52 58.7373C2060.78 50.3126 2046.61 42.2941 2032.39 34.2451C2030.91 33.4068 2029.43 32.5682 2027.94 31.7287C2012.22 22.8235 1996.48 13.8217 1981.14 4.10587C1963.29 -7.20246 1946.32 -20.4243 1929.51 -33.9961C1925.66 -37.1113 1921.81 -40.246 1917.96 -43.38C1905.07 -53.8831 1892.19 -64.3779 1879.04 -74.1014C1844.91 -99.3601 1808.78 -119.614 1765.38 -121.722C1674.87 -126.12 1594.35 -73.8152 1530.59 -17.5563Z" fill="#00598A" stroke="#00679E" stroke-width="3"/>
<g filter="url(#filter5_d_4039_270)">
<path fill-rule="evenodd" clip-rule="evenodd" d="M1482.3 113.186C1466.39 37.9125 1534.28 -31.3021 1589.61 -84.7614C1644.89 -138.171 1714.16 -187.848 1790.98 -185.047C1864.39 -182.37 1912.41 -112.196 1973.08 -70.7803C2025.1 -35.2689 2082.85 -10.6066 2120.5 39.8914C2164.69 99.1659 2216.45 166.445 2204.31 239.375C2192.16 312.388 2116.47 352.978 2060.35 401.237C2007.94 446.306 1958.48 502.881 1889.71 509.9C1821.89 516.823 1749.89 487.817 1703.73 437.639C1662.43 392.738 1697.68 314.129 1663.29 263.739C1617.95 197.296 1498.94 191.889 1482.3 113.186Z" fill="#0A7CC7"/>
</g>
<g filter="url(#filter6_d_4039_270)">
<path fill-rule="evenodd" clip-rule="evenodd" d="M1542.3 53.1865C1526.39 -22.0875 1594.28 -91.3021 1649.61 -144.761C1704.89 -198.171 1774.16 -247.848 1850.98 -245.047C1924.39 -242.37 1972.41 -172.196 2033.08 -130.78C2085.1 -95.2689 2142.85 -70.6066 2180.5 -20.1086C2224.69 39.1659 2276.45 106.445 2264.31 179.375C2252.16 252.388 2176.47 292.978 2120.35 341.237C2067.94 386.306 2018.48 442.881 1949.71 449.9C1881.89 456.823 1809.89 427.817 1763.73 377.639C1722.43 332.738 1757.68 254.129 1723.29 203.739C1677.95 137.296 1558.94 131.889 1542.3 53.1865Z" fill="#009BF9"/>
</g>
<g filter="url(#filter7_d_4039_270)">
<path fill-rule="evenodd" clip-rule="evenodd" d="M1602.3 -6.81352C1586.39 -82.0875 1654.28 -151.302 1709.61 -204.761C1764.89 -258.171 1834.16 -307.848 1910.98 -305.047C1984.39 -302.37 2032.41 -232.196 2093.08 -190.78C2145.1 -155.269 2202.85 -130.607 2240.5 -80.1086C2284.69 -20.8341 2336.45 46.4446 2324.31 119.375C2312.16 192.388 2236.47 232.978 2180.35 281.237C2127.94 326.306 2078.48 382.881 2009.71 389.9C1941.89 396.823 1869.89 367.817 1823.73 317.639C1782.43 272.738 1817.68 194.129 1783.29 143.739C1737.95 77.2956 1618.94 71.8894 1602.3 -6.81352Z" fill="#2EB0FF"/>
</g>
<g filter="url(#filter8_d_4039_270)">
<path fill-rule="evenodd" clip-rule="evenodd" d="M75.6723 1312.5C34.1056 1327.82 -10.4603 1324.25 -53.9376 1315.75C-97.0133 1307.32 -134.279 1287.29 -171.572 1264.15C-222.706 1232.41 -287.277 1211.69 -310.825 1156.3C-336.496 1095.93 -324.331 1025.15 -298.904 964.676C-271.625 899.795 -229.333 836.123 -164.595 808.508C-100.844 781.314 -21.0708 784.539 37.8569 821.026C91.5944 854.299 78.9818 939.37 121.816 985.847C163.513 1031.09 260.204 1019.68 275.793 1079.19C290.85 1136.68 223.828 1182.51 185.138 1227.62C154.322 1263.54 120.083 1296.13 75.6723 1312.5Z" fill="#2EB0FF"/>
</g>
<g clip-path="url(#clip1_4039_270)" filter="url(#filter9_d_4039_270)">
<path d="M1088 540.077C1087.98 574.011 1074.48 606.549 1050.48 630.537C1026.48 654.525 993.934 668 960 668C926.066 668 893.52 654.525 869.517 630.537C845.515 606.549 832.02 574.011 832 540.077C831.99 523.261 835.293 506.608 841.721 491.07C848.149 475.531 857.576 461.412 869.463 449.518C881.35 437.623 895.464 428.188 910.999 421.751C926.533 415.313 943.184 412 960 412C976.816 412 993.467 415.313 1009 421.751C1024.54 428.188 1038.65 437.623 1050.54 449.518C1062.42 461.412 1071.85 475.531 1078.28 491.07C1084.71 506.608 1088.01 523.261 1088 540.077Z" fill="#009BF9"/>
<path d="M985.225 434.534C982.834 434.591 980.544 435.513 978.78 437.128C977.017 438.744 975.898 440.944 975.631 443.321C975.365 445.697 975.968 448.09 977.33 450.057C978.692 452.023 980.721 453.429 983.04 454.014C998.134 458.058 1011.9 466.004 1022.94 477.054C1023.86 477.997 1024.95 478.748 1026.16 479.264C1027.36 479.781 1028.66 480.052 1029.97 480.063C1031.28 480.073 1032.58 479.822 1033.8 479.325C1035.01 478.827 1036.12 478.094 1037.04 477.166C1037.97 476.238 1038.71 475.135 1039.2 473.92C1039.7 472.706 1039.95 471.405 1039.94 470.093C1039.93 468.781 1039.66 467.484 1039.14 466.277C1038.63 465.071 1037.87 463.98 1036.93 463.067C1023.43 449.562 1006.61 439.849 988.16 434.907C987.206 434.636 986.216 434.51 985.225 434.534ZM960.28 466.407C958.937 466.402 957.596 466.435 956.257 466.504C938.413 467.421 921.101 474.813 907.957 487.957C907.02 488.862 906.273 489.945 905.759 491.142C905.244 492.34 904.974 493.627 904.963 494.93C904.951 496.233 905.2 497.525 905.693 498.731C906.187 499.937 906.915 501.033 907.837 501.955C908.758 502.876 909.854 503.605 911.06 504.098C912.266 504.592 913.558 504.84 914.861 504.829C916.164 504.817 917.452 504.547 918.649 504.033C919.846 503.519 920.929 502.771 921.835 501.834C937.291 486.378 960.461 481.769 980.655 490.134C1000.85 498.499 1013.97 518.141 1013.97 539.999C1013.97 561.857 1000.85 581.499 980.655 589.864C960.461 598.229 937.291 593.62 921.835 578.164C920.929 577.227 919.847 576.479 918.649 575.965C917.452 575.451 916.164 575.18 914.861 575.169C913.558 575.158 912.266 575.406 911.06 575.9C909.854 576.393 908.758 577.122 907.837 578.043C906.915 578.965 906.187 580.061 905.693 581.267C905.2 582.473 904.951 583.765 904.963 585.068C904.974 586.371 905.244 587.659 905.759 588.856C906.273 590.053 907.02 591.136 907.957 592.042C928.987 613.071 960.689 619.378 988.165 607.997C1015.64 596.615 1033.6 569.739 1033.6 539.999C1033.6 510.259 1015.64 483.383 988.165 472.002C979.149 468.267 969.679 466.437 960.28 466.407ZM959.76 501.599C938.697 501.731 921.512 519.096 921.6 540.159C921.688 561.222 939.017 578.443 960.08 578.399C980.599 578.356 997.378 561.91 998.237 541.589C998.329 541.086 998.381 540.577 998.392 540.067C998.392 540.043 998.4 540.022 998.4 539.999C998.399 539.957 998.397 539.914 998.395 539.872C998.396 539.807 998.397 539.743 998.397 539.679C998.397 539.636 998.386 539.597 998.385 539.554C998.37 539.029 998.312 538.507 998.212 537.992C997.133 517.725 980.245 501.471 959.76 501.599ZM864.96 504.384C862.682 504.277 860.437 504.961 858.605 506.32C856.773 507.678 855.467 509.628 854.907 511.839C849.964 530.286 849.964 549.712 854.907 568.159C855.228 569.431 855.798 570.626 856.585 571.675C857.371 572.725 858.359 573.607 859.49 574.271C860.62 574.936 861.872 575.368 863.172 575.544C864.471 575.72 865.793 575.636 867.06 575.297C868.326 574.957 869.513 574.369 870.551 573.567C871.588 572.765 872.456 571.764 873.103 570.624C873.75 569.483 874.164 568.225 874.321 566.923C874.477 565.621 874.373 564.301 874.015 563.039C869.97 547.945 869.97 532.053 874.015 516.959C874.421 515.525 874.497 514.019 874.239 512.551C873.981 511.084 873.395 509.694 872.524 508.485C871.654 507.276 870.521 506.279 869.211 505.569C867.901 504.859 866.448 504.454 864.96 504.384ZM898.882 513.552C896.622 513.445 894.394 514.124 892.576 515.472C890.758 516.82 889.462 518.755 888.907 520.949C885.564 533.428 885.564 546.57 888.907 559.049C889.225 560.311 889.79 561.498 890.571 562.539C891.351 563.581 892.331 564.457 893.453 565.116C894.575 565.776 895.817 566.205 897.107 566.38C898.397 566.555 899.708 566.471 900.965 566.135C902.223 565.798 903.4 565.214 904.43 564.418C905.459 563.622 906.32 562.628 906.962 561.496C907.604 560.364 908.015 559.116 908.17 557.823C908.325 556.531 908.221 555.221 907.865 553.969C905.413 544.817 905.413 535.181 907.865 526.029C908.268 524.607 908.344 523.112 908.088 521.656C907.832 520.2 907.251 518.821 906.387 517.621C905.523 516.421 904.4 515.432 903.1 514.728C901.801 514.023 900.359 513.621 898.882 513.552ZM959.88 520.799C970.58 520.732 979.108 529.138 979.197 539.839C979.199 539.868 979.201 539.897 979.202 539.927C979.202 539.951 979.201 539.975 979.2 539.999C979.2 550.7 970.741 559.177 960.04 559.199C949.339 559.221 940.845 550.78 940.8 540.079C940.755 529.378 949.179 520.866 959.88 520.799ZM1029.74 599.952C1027.18 600.028 1024.74 601.101 1022.94 602.944C1011.9 613.994 998.134 621.94 983.04 625.984C981.768 626.305 980.573 626.875 979.524 627.661C978.474 628.448 977.592 629.435 976.928 630.566C976.263 631.697 975.831 632.949 975.655 634.248C975.479 635.548 975.563 636.87 975.902 638.136C976.242 639.403 976.83 640.59 977.632 641.627C978.434 642.665 979.435 643.532 980.575 644.179C981.716 644.827 982.974 645.241 984.276 645.397C985.578 645.554 986.898 645.45 988.16 645.092C1006.61 640.149 1023.43 630.436 1036.93 616.932C1038.36 615.542 1039.34 613.753 1039.73 611.8C1040.13 609.846 1039.92 607.819 1039.15 605.983C1038.37 604.148 1037.06 602.59 1035.38 601.513C1033.7 600.437 1031.74 599.893 1029.74 599.952Z" fill="white"/>
</g>
</g>
<defs>
<filter id="filter0_b_4039_270" x="-72.3" y="-72.3" width="2064.6" height="1224.6" filterUnits="userSpaceOnUse" color-interpolation-filters="sRGB">
<feFlood flood-opacity="0" result="BackgroundImageFix"/>
<feGaussianBlur in="BackgroundImageFix" stdDeviation="36.15"/>
<feComposite in2="SourceAlpha" operator="in" result="effect1_backgroundBlur_4039_270"/>
<feBlend mode="normal" in="SourceGraphic" in2="effect1_backgroundBlur_4039_270" result="shape"/>
</filter>
<filter id="filter1_f_4039_270" x="800.195" y="-263.16" width="1600.72" height="1319.88" filterUnits="userSpaceOnUse" color-interpolation-filters="sRGB">
<feFlood flood-opacity="0" result="BackgroundImageFix"/>
<feBlend mode="normal" in="SourceGraphic" in2="BackgroundImageFix" result="shape"/>
<feGaussianBlur stdDeviation="100" result="effect1_foregroundBlur_4039_270"/>
</filter>
<filter id="filter2_f_4039_270" x="-266.884" y="-26.3379" width="1426.74" height="1572.63" filterUnits="userSpaceOnUse" color-interpolation-filters="sRGB">
<feFlood flood-opacity="0" result="BackgroundImageFix"/>
<feBlend mode="normal" in="SourceGraphic" in2="BackgroundImageFix" result="shape"/>
<feGaussianBlur stdDeviation="100" result="effect1_foregroundBlur_4039_270"/>
</filter>
<filter id="filter3_d_4039_270" x="-231.526" y="649.849" width="680.041" height="635.772" filterUnits="userSpaceOnUse" color-interpolation-filters="sRGB">
<feFlood flood-opacity="0" result="BackgroundImageFix"/>
<feColorMatrix in="SourceAlpha" type="matrix" values="0 0 0 0 0 0 0 0 0 0 0 0 0 0 0 0 0 0 127 0" result="hardAlpha"/>
<feOffset dx="2" dy="12"/>
<feGaussianBlur stdDeviation="17.05"/>
<feComposite in2="hardAlpha" operator="out"/>
<feColorMatrix type="matrix" values="0 0 0 0 0 0 0 0 0 0 0 0 0 0 0 0 0 0 0.25 0"/>
<feBlend mode="normal" in2="BackgroundImageFix" result="effect1_dropShadow_4039_270"/>
<feBlend mode="normal" in="SourceGraphic" in2="effect1_dropShadow_4039_270" result="shape"/>
</filter>
<filter id="filter4_d_4039_270" x="-291.526" y="709.849" width="680.041" height="635.772" filterUnits="userSpaceOnUse" color-interpolation-filters="sRGB">
<feFlood flood-opacity="0" result="BackgroundImageFix"/>
<feColorMatrix in="SourceAlpha" type="matrix" values="0 0 0 0 0 0 0 0 0 0 0 0 0 0 0 0 0 0 127 0" result="hardAlpha"/>
<feOffset dx="2" dy="12"/>
<feGaussianBlur stdDeviation="17.05"/>
<feComposite in2="hardAlpha" operator="out"/>
<feColorMatrix type="matrix" values="0 0 0 0 0 0 0 0 0 0 0 0 0 0 0 0 0 0 0.25 0"/>
<feBlend mode="normal" in2="BackgroundImageFix" result="effect1_dropShadow_4039_270"/>
<feBlend mode="normal" in="SourceGraphic" in2="effect1_dropShadow_4039_270" result="shape"/>
</filter>
<filter id="filter5_d_4039_270" x="1447.85" y="-207.26" width="794.361" height="764.274" filterUnits="userSpaceOnUse" color-interpolation-filters="sRGB">
<feFlood flood-opacity="0" result="BackgroundImageFix"/>
<feColorMatrix in="SourceAlpha" type="matrix" values="0 0 0 0 0 0 0 0 0 0 0 0 0 0 0 0 0 0 127 0" result="hardAlpha"/>
<feOffset dx="2" dy="12"/>
<feGaussianBlur stdDeviation="17.05"/>
<feComposite in2="hardAlpha" operator="out"/>
<feColorMatrix type="matrix" values="0 0 0 0 0 0 0 0 0 0 0 0 0 0 0 0 0 0 0.25 0"/>
<feBlend mode="normal" in2="BackgroundImageFix" result="effect1_dropShadow_4039_270"/>
<feBlend mode="normal" in="SourceGraphic" in2="effect1_dropShadow_4039_270" result="shape"/>
</filter>
<filter id="filter6_d_4039_270" x="1507.85" y="-267.26" width="794.361" height="764.274" filterUnits="userSpaceOnUse" color-interpolation-filters="sRGB">
<feFlood flood-opacity="0" result="BackgroundImageFix"/>
<feColorMatrix in="SourceAlpha" type="matrix" values="0 0 0 0 0 0 0 0 0 0 0 0 0 0 0 0 0 0 127 0" result="hardAlpha"/>
<feOffset dx="2" dy="12"/>
<feGaussianBlur stdDeviation="17.05"/>
<feComposite in2="hardAlpha" operator="out"/>
<feColorMatrix type="matrix" values="0 0 0 0 0 0 0 0 0 0 0 0 0 0 0 0 0 0 0.25 0"/>
<feBlend mode="normal" in2="BackgroundImageFix" result="effect1_dropShadow_4039_270"/>
<feBlend mode="normal" in="SourceGraphic" in2="effect1_dropShadow_4039_270" result="shape"/>
</filter>
<filter id="filter7_d_4039_270" x="1567.85" y="-327.26" width="794.361" height="764.274" filterUnits="userSpaceOnUse" color-interpolation-filters="sRGB">
<feFlood flood-opacity="0" result="BackgroundImageFix"/>
<feColorMatrix in="SourceAlpha" type="matrix" values="0 0 0 0 0 0 0 0 0 0 0 0 0 0 0 0 0 0 127 0" result="hardAlpha"/>
<feOffset dx="2" dy="12"/>
<feGaussianBlur stdDeviation="17.05"/>
<feComposite in2="hardAlpha" operator="out"/>
<feColorMatrix type="matrix" values="0 0 0 0 0 0 0 0 0 0 0 0 0 0 0 0 0 0 0.25 0"/>
<feBlend mode="normal" in2="BackgroundImageFix" result="effect1_dropShadow_4039_270"/>
<feBlend mode="normal" in="SourceGraphic" in2="effect1_dropShadow_4039_270" result="shape"/>
</filter>
<filter id="filter8_d_4039_270" x="-357.153" y="768.421" width="671.212" height="600.737" filterUnits="userSpaceOnUse" color-interpolation-filters="sRGB">
<feFlood flood-opacity="0" result="BackgroundImageFix"/>
<feColorMatrix in="SourceAlpha" type="matrix" values="0 0 0 0 0 0 0 0 0 0 0 0 0 0 0 0 0 0 127 0" result="hardAlpha"/>
<feOffset dx="2" dy="12"/>
<feGaussianBlur stdDeviation="17.05"/>
<feComposite in2="hardAlpha" operator="out"/>
<feColorMatrix type="matrix" values="0 0 0 0 0 0 0 0 0 0 0 0 0 0 0 0 0 0 0.25 0"/>
<feBlend mode="normal" in2="BackgroundImageFix" result="effect1_dropShadow_4039_270"/>
<feBlend mode="normal" in="SourceGraphic" in2="effect1_dropShadow_4039_270" result="shape"/>
</filter>
<filter id="filter9_d_4039_270" x="828" y="412" width="264" height="264" filterUnits="userSpaceOnUse" color-interpolation-filters="sRGB">
<feFlood flood-opacity="0" result="BackgroundImageFix"/>
<feColorMatrix in="SourceAlpha" type="matrix" values="0 0 0 0 0 0 0 0 0 0 0 0 0 0 0 0 0 0 127 0" result="hardAlpha"/>
<feOffset dy="4"/>
<feGaussianBlur stdDeviation="2"/>
<feComposite in2="hardAlpha" operator="out"/>
<feColorMatrix type="matrix" values="0 0 0 0 0 0 0 0 0 0 0 0 0 0 0 0 0 0 0.25 0"/>
<feBlend mode="normal" in2="BackgroundImageFix" result="effect1_dropShadow_4039_270"/>
<feBlend mode="normal" in="SourceGraphic" in2="effect1_dropShadow_4039_270" result="shape"/>
</filter>
<clipPath id="clip0_4039_270">
<rect width="1920" height="1080" fill="white"/>
</clipPath>
<clipPath id="clip1_4039_270">
<rect width="256" height="256" fill="white" transform="translate(832 412)"/>
</clipPath>
</defs>
</svg>
