<svg width="1920" height="1080" viewBox="0 0 1920 1080" fill="none" xmlns="http://www.w3.org/2000/svg">
<g clip-path="url(#clip0_2088_108)" filter="url(#filter0_b_2088_108)">
<rect width="1920" height="1080" fill="#76250A"/>
<g filter="url(#filter1_f_2088_108)">
<path fill-rule="evenodd" clip-rule="evenodd" d="M1005.52 311.019C974.913 211.197 1082.34 124.308 1170.07 57.3695C1257.71 -9.50646 1368.55 -70.6495 1494.91 -62.4116C1615.67 -54.5387 1698.72 40.4906 1800.85 98.494C1888.42 148.228 1984.75 184.051 2049.6 252.619C2125.71 333.103 2214.73 424.55 2199.12 519.629C2183.49 614.815 2061.56 663.641 1972.23 723.701C1888.81 779.793 1810.91 851.172 1698.36 856.311C1587.35 861.379 1467.34 819.004 1388.54 750.352C1318.03 688.921 1371.27 587.754 1311.79 519.522C1233.35 429.553 1037.53 415.388 1005.52 311.019Z" fill="#BA3D12"/>
</g>
<g filter="url(#filter2_f_2088_108)">
<path fill-rule="evenodd" clip-rule="evenodd" d="M678.523 1337.59C612.814 1358.69 536.736 1338.51 461.107 1308.08C386.176 1277.93 317.768 1224.58 248.438 1164.55C153.375 1082.23 38.7771 1019.72 -16.4694 894.545C-76.6933 758.097 -76.1106 610.026 -50.2888 487.731C-22.5868 356.532 30.7442 232.141 132.029 191.242C231.769 150.967 367.055 180.309 476.582 274.981C576.462 361.315 579.145 539.858 664.371 651.386C747.336 759.953 907.003 762.72 950.004 894.501C991.537 1021.78 891.529 1101.02 839.042 1186.69C797.237 1254.92 748.729 1315.04 678.523 1337.59Z" fill="#BA3D12"/>
</g>
<path d="M294.204 1313.54C349.977 1334.79 406.602 1348.81 456.071 1332.65C508.884 1315.41 545.717 1270.95 577.455 1221.05C586.476 1206.86 597.315 1192.89 608.382 1178.62C609.467 1177.22 610.555 1175.81 611.644 1174.41C623.809 1158.69 636.046 1142.58 646.118 1125.54C666.293 1091.41 677.845 1053.4 662.946 1006.99C647.502 958.874 609.79 934.804 568.824 913.114C563.396 910.24 557.913 907.409 552.415 904.569C516.279 885.907 479.488 866.906 453.509 833.439C425.748 797.676 410.458 751.93 395.297 706.573C393.631 701.589 391.967 696.609 390.288 691.648C373.381 641.698 354.963 593.6 318.029 562.553C237.509 494.864 136.947 474.803 61.9507 505.279C23.7886 520.787 -5.5227 551.413 -28.017 590.008C-50.5101 628.6 -66.2428 675.253 -77.2192 722.995C-97.6949 812.055 -99.7128 919.659 -56.333 1018.24C-36.3857 1063.57 -5.21651 1097.28 29.6028 1126.96C47.008 1141.8 65.3454 1155.65 83.6521 1169.43L85.1065 1170.52C102.938 1183.94 120.716 1197.32 137.621 1211.56C188.4 1254.32 238.718 1292.39 294.204 1313.54Z" fill="#AC3810" stroke="#EA521F" stroke-width="3"/>
<path d="M1406.11 37.7774C1368.83 65.1625 1327.19 96.7531 1298.23 131.877C1269.26 167.009 1252.74 205.972 1266.31 247.959C1273.42 269.965 1289.4 287.182 1310.21 301.781C1331.01 316.374 1356.79 328.44 1383.67 340.093C1390.15 342.899 1396.69 345.68 1403.24 348.467C1423.95 357.278 1444.8 366.148 1464.21 376.034C1489.77 389.043 1512.7 403.74 1529.39 422.209C1553.41 448.787 1555.95 481.301 1558.5 514.095C1558.63 515.687 1558.75 517.28 1558.88 518.873C1561.61 553.121 1565.51 587.306 1596.32 613.285C1664.3 670.612 1767.42 706.335 1862.61 702.718C1942.44 699.684 2001.81 658.992 2059.9 619.171C2072.16 610.771 2084.35 602.41 2096.67 594.449C2113.24 583.745 2131.14 573.49 2149.17 563.159C2151.78 561.666 2154.38 560.172 2156.99 558.675C2177.62 546.824 2198.19 534.78 2216.79 521.805C2253.96 495.885 2283.6 466.04 2290.13 426.169C2296.64 386.399 2280.46 347.406 2254.67 310.145C2230.06 274.596 2196.53 240.389 2165.11 208.334C2163.59 206.783 2162.08 205.237 2160.57 203.697C2132.53 175.066 2097.81 153.228 2060.78 133.38C2044.01 124.39 2026.75 115.797 2009.41 107.166C2007.61 106.268 2005.8 105.37 2004 104.471C1984.84 94.9244 1965.63 85.2746 1946.89 74.9144C1925.07 62.8502 1904.24 48.8797 1883.62 34.5714C1878.88 31.2849 1874.16 27.9795 1869.43 24.6756C1853.61 13.6085 1837.81 2.55641 1821.72 -7.72511C1779.93 -34.4383 1736.01 -56.0942 1684.03 -59.6844C1575.49 -67.1809 1480.75 -17.0416 1406.11 37.7774Z" fill="#AC3810" stroke="#EA521F" stroke-width="3"/>
<path d="M201.777 1258.22C248.854 1274.2 296.858 1284.27 339.475 1269.93C384.96 1254.62 417.454 1217.51 445.719 1176.11C453.747 1164.36 463.319 1152.72 473.099 1140.84C474.058 1139.67 475.019 1138.51 475.981 1137.34C486.729 1124.25 497.556 1110.84 506.559 1096.71C524.589 1068.42 535.404 1037.11 523.761 999.536C511.685 960.563 479.958 941.811 445.55 925.135C440.984 922.922 436.372 920.745 431.749 918.564C401.37 904.227 370.523 889.669 349.22 863.109C326.444 834.711 314.517 797.901 302.665 761.323C301.363 757.307 300.063 753.294 298.749 749.294C285.525 709.04 270.937 670.211 240.084 645.738C172.94 592.479 87.577 578.548 22.8552 605.165C-42.986 632.241 -80.137 707.68 -101.114 785.861C-120.71 858.893 -125.014 946.636 -90.3237 1025.96C-74.3586 1062.47 -48.5296 1089.22 -19.523 1112.57C-5.02376 1124.25 10.293 1135.09 25.5756 1145.87L26.7877 1146.73C41.6768 1157.23 56.5123 1167.69 70.5822 1178.88C112.874 1212.49 154.913 1242.31 201.777 1258.22Z" fill="#DB4714" stroke="#EA531F" stroke-width="3"/>
<g filter="url(#filter3_d_2088_108)">
<path fill-rule="evenodd" clip-rule="evenodd" d="M213.583 1230.07C171.887 1245.12 126.602 1240.04 82.2786 1229.76C38.3646 1219.58 0.00437233 1197.26 -38.4729 1171.63C-91.2317 1136.48 -157.293 1112.63 -182.77 1053.2C-210.542 988.417 -200.259 913.695 -176.232 850.281C-150.455 782.251 -109.422 715.936 -44.5902 688.518C19.2537 661.518 100.221 667.249 161.018 707.657C216.461 744.506 206.137 834.379 250.907 884.917C294.49 934.115 392.185 924.807 409.712 988.391C426.64 1049.81 360.021 1096.48 322.102 1143.2C291.901 1180.42 258.133 1213.99 213.583 1230.07Z" fill="#ED6536"/>
</g>
<g filter="url(#filter4_d_2088_108)">
<path fill-rule="evenodd" clip-rule="evenodd" d="M153.583 1290.07C111.887 1305.12 66.6021 1300.04 22.2786 1289.76C-21.6354 1279.58 -59.9956 1257.26 -98.4729 1231.63C-151.232 1196.48 -217.293 1172.63 -242.77 1113.2C-270.542 1048.42 -260.259 973.695 -236.232 910.281C-210.455 842.251 -169.422 775.936 -104.59 748.518C-40.7463 721.518 40.2212 727.249 101.018 767.657C156.461 804.506 146.137 894.379 190.907 944.917C234.49 994.115 332.185 984.807 349.712 1048.39C366.64 1109.81 300.021 1156.48 262.102 1203.2C231.901 1240.42 198.133 1273.99 153.583 1290.07Z" fill="#F18965"/>
</g>
<path d="M1530.59 -17.5563C1498.72 10.5621 1463.1 42.9574 1437.97 78.4873C1412.83 114.024 1398.01 152.924 1408.14 193.969C1418.76 237.027 1459.5 260.408 1503.61 281.904C1508.94 284.501 1514.32 287.071 1519.72 289.646C1536.74 297.779 1553.87 305.958 1569.78 315.183C1590.71 327.319 1609.39 341.184 1622.77 358.943C1642.06 384.54 1643.27 416.647 1644.49 449.029C1644.55 450.592 1644.61 452.155 1644.67 453.719C1645.99 487.455 1648.28 521.151 1673.31 546.029C1728.49 600.881 1813.64 633.388 1893.29 627.149C1933.81 623.976 1968.34 607.332 2000.27 585.627C2021.03 571.515 2040.79 555.181 2060.37 538.994C2070.84 530.341 2081.26 521.731 2091.75 513.524C2105.86 502.482 2121.08 491.847 2136.41 481.13C2138.62 479.581 2140.84 478.031 2143.06 476.478C2160.6 464.186 2178.1 451.701 2193.98 438.35C2225.74 411.66 2251.25 381.348 2257.79 341.84C2264.32 302.425 2251.94 264.356 2231.44 228.202C2211.9 193.728 2184.87 160.829 2159.55 130.012C2158.33 128.52 2157.11 127.033 2155.89 125.551C2133.27 97.9908 2104.88 77.3428 2074.52 58.7373C2060.78 50.3126 2046.61 42.2941 2032.39 34.2451C2030.91 33.4068 2029.43 32.5682 2027.94 31.7287C2012.22 22.8235 1996.48 13.8217 1981.14 4.10587C1963.29 -7.20246 1946.32 -20.4243 1929.51 -33.9961C1925.66 -37.1113 1921.81 -40.246 1917.96 -43.38C1905.07 -53.8831 1892.19 -64.3779 1879.04 -74.1014C1844.91 -99.3601 1808.78 -119.614 1765.38 -121.722C1674.87 -126.12 1594.35 -73.8152 1530.59 -17.5563Z" fill="#DB4714" stroke="#EA531F" stroke-width="3"/>
<g filter="url(#filter5_d_2088_108)">
<path fill-rule="evenodd" clip-rule="evenodd" d="M1482.3 113.186C1466.39 37.9125 1534.28 -31.3021 1589.61 -84.7614C1644.89 -138.171 1714.16 -187.848 1790.98 -185.047C1864.39 -182.37 1912.41 -112.196 1973.08 -70.7803C2025.1 -35.2689 2082.85 -10.6066 2120.5 39.8914C2164.69 99.1659 2216.45 166.445 2204.31 239.375C2192.16 312.388 2116.47 352.978 2060.35 401.237C2007.94 446.306 1958.48 502.881 1889.71 509.9C1821.89 516.823 1749.89 487.817 1703.73 437.639C1662.43 392.738 1697.68 314.129 1663.29 263.739C1617.95 197.296 1498.94 191.889 1482.3 113.186Z" fill="#ED6536"/>
</g>
<g filter="url(#filter6_d_2088_108)">
<path fill-rule="evenodd" clip-rule="evenodd" d="M1542.3 53.1865C1526.39 -22.0875 1594.28 -91.3021 1649.61 -144.761C1704.89 -198.171 1774.16 -247.848 1850.98 -245.047C1924.39 -242.37 1972.41 -172.196 2033.08 -130.78C2085.1 -95.2689 2142.85 -70.6066 2180.5 -20.1086C2224.69 39.1659 2276.45 106.445 2264.31 179.375C2252.16 252.388 2176.47 292.978 2120.35 341.237C2067.94 386.306 2018.48 442.881 1949.71 449.9C1881.89 456.823 1809.89 427.817 1763.73 377.639C1722.43 332.738 1757.68 254.129 1723.29 203.739C1677.95 137.296 1558.94 131.889 1542.3 53.1865Z" fill="#F18965"/>
</g>
<g filter="url(#filter7_d_2088_108)">
<path fill-rule="evenodd" clip-rule="evenodd" d="M1602.3 -6.8145C1586.39 -82.0884 1654.28 -151.303 1709.61 -204.762C1764.89 -258.172 1834.16 -307.849 1910.98 -305.048C1984.39 -302.371 2032.41 -232.197 2093.08 -190.781C2145.1 -155.27 2202.85 -130.608 2240.5 -80.1096C2284.69 -20.8351 2336.45 46.4436 2324.31 119.374C2312.16 192.387 2236.47 232.977 2180.35 281.236C2127.94 326.305 2078.48 382.88 2009.71 389.899C1941.89 396.822 1869.89 367.816 1823.73 317.638C1782.43 272.737 1817.68 194.128 1783.29 143.738C1737.95 77.2946 1618.94 71.8884 1602.3 -6.8145Z" fill="#F5AD93"/>
</g>
<g filter="url(#filter8_d_2088_108)">
<path fill-rule="evenodd" clip-rule="evenodd" d="M75.6723 1312.5C34.1056 1327.82 -10.4603 1324.25 -53.9376 1315.75C-97.0133 1307.32 -134.279 1287.29 -171.572 1264.15C-222.706 1232.41 -287.277 1211.69 -310.825 1156.3C-336.496 1095.93 -324.331 1025.15 -298.904 964.676C-271.625 899.795 -229.333 836.123 -164.595 808.508C-100.844 781.314 -21.0708 784.539 37.8569 821.026C91.5944 854.299 78.9818 939.37 121.816 985.847C163.513 1031.09 260.204 1019.68 275.793 1079.19C290.85 1136.68 223.828 1182.51 185.138 1227.62C154.322 1263.54 120.083 1296.13 75.6723 1312.5Z" fill="#F5AD93"/>
</g>
<path d="M961.106 666.624C1030.43 666.624 1086.62 610.428 1086.62 541.106C1086.62 471.784 1030.43 415.588 961.106 415.588C891.784 415.588 835.588 471.784 835.588 541.106C835.588 610.428 891.784 666.624 961.106 666.624Z" fill="#DD4814"/>
<path fill-rule="evenodd" clip-rule="evenodd" d="M875.76 524.345C866.501 524.345 858.997 531.847 858.997 541.106C858.997 550.361 866.501 557.868 875.76 557.868C885.018 557.868 892.52 550.361 892.52 541.106C892.511 531.847 885.013 524.345 875.76 524.345ZM995.412 600.511C987.393 605.141 984.647 615.381 989.276 623.395C993.902 631.409 1004.15 634.16 1012.16 629.526C1020.18 624.905 1022.93 614.661 1018.3 606.642C1013.67 598.637 1003.42 595.886 995.412 600.511ZM912.16 541.11C912.16 524.549 920.386 509.918 932.974 501.057L920.725 480.538C906.059 490.34 895.151 505.314 890.621 522.852C895.91 527.174 899.295 533.743 899.295 541.11C899.295 548.469 895.91 555.039 890.621 559.36C895.146 576.907 906.055 591.877 920.725 601.678L932.974 581.155C920.386 572.299 912.16 557.672 912.16 541.11ZM961.108 492.154C986.682 492.154 1007.66 511.762 1009.86 536.763L1033.74 536.407C1032.57 517.949 1024.5 501.378 1012.11 489.195C1005.74 491.598 998.38 491.23 992.019 487.563C985.645 483.888 981.648 477.683 980.559 470.949C974.363 469.24 967.846 468.307 961.103 468.307C949.518 468.307 938.567 471.023 928.847 475.839L940.493 496.705C946.754 493.794 953.74 492.154 961.108 492.154ZM961.108 590.054C953.744 590.054 946.754 588.418 940.493 585.503L928.847 606.364C938.571 611.185 949.527 613.91 961.108 613.91C967.846 613.91 974.363 612.973 980.555 611.259C981.648 604.525 985.645 598.324 992.019 594.645C998.384 590.97 1005.74 590.605 1012.11 593.013C1024.5 580.83 1032.57 564.259 1033.74 545.797L1009.86 545.445C1007.66 570.455 986.677 590.059 961.108 590.059V590.054ZM995.407 481.697C1003.43 486.326 1013.67 483.584 1018.29 475.566C1022.92 467.552 1020.18 457.307 1012.16 452.676C1004.15 448.05 993.902 450.798 989.272 458.817C984.651 466.827 987.398 477.071 995.407 481.692V481.697Z" fill="white"/>
<path fill-rule="evenodd" clip-rule="evenodd" d="M961.803 500.764L952.567 510.23L951.341 510.086L953.699 503.824L944.246 513.275L946.082 529.541L945.002 520.102L944.246 513.275L936.623 517.924L932.763 525.817L927.487 534.881L932.471 547.194L934.074 556.891L936.055 561.625L932.719 565.608L929.211 569.852H938.811L940.019 561.204L943.882 555.29L950.321 556.397L957.419 553.555L962.666 550.873L967.793 554.279L961.645 561.638L955.336 567.583L965.232 567.726L965.258 563.699L972.751 557.751L975.489 561.2L967.606 572.429L977.663 572.49L977.298 566.862L984.492 560.033L980.809 552.561L980.383 543.382L987.76 539.037L991.925 539.919L997.596 537.811L999.21 526.382L990.38 528.964L985.017 537.032L975.94 541.852L963.273 536.715L954.051 529.86L960.082 521.416L957.955 512.583L961.803 500.764Z" fill="white" fill-opacity="0.706"/>
<path fill-rule="evenodd" clip-rule="evenodd" d="M948.238 547.767L957.419 553.555L962.664 550.869L948.238 547.767ZM938.196 550.062L940.019 561.2L943.881 555.286L938.196 550.062ZM980.809 552.557L975.49 561.2L984.493 560.033L980.809 552.557ZM975.49 561.2L967.606 572.429L977.663 572.49L977.295 566.862L975.49 561.2ZM967.793 554.275L961.645 561.638L965.258 563.699L967.793 554.275ZM961.645 561.638L955.335 567.578L965.232 567.726L961.645 561.638ZM932.719 565.604L929.21 569.848H938.811L932.719 565.604Z" fill="#DD8371"/>
<path fill-rule="evenodd" clip-rule="evenodd" d="M944.246 513.275L946.082 529.54L948.312 517.649L944.246 513.275ZM946.082 529.54L954.052 529.858L954.169 524.416L946.082 529.54ZM932.763 525.816L927.488 534.878L936.261 527.851L932.763 525.816ZM927.488 534.878L932.472 547.189L936.261 537.086L927.488 534.878ZM993.761 533.219L987.756 539.034L991.926 539.916L993.761 533.219ZM980.384 543.38L973.303 548.66L980.805 552.557L980.384 543.38ZM973.298 548.66L962.664 550.869L967.791 554.275L973.298 548.66ZM967.791 554.275L965.257 563.699L972.747 557.75L967.791 554.275ZM965.257 563.699L961.644 561.634L965.23 567.726L965.257 563.699ZM962.664 550.869L963.32 544.603L948.238 547.766L962.664 550.869ZM948.238 547.766L938.197 550.062L943.881 555.286L948.238 547.766ZM938.197 550.062L934.073 556.887L940.018 561.204L938.197 550.062ZM940.018 561.204L932.717 565.604L938.808 569.847L940.017 561.2L940.018 561.204ZM984.488 560.033L975.489 561.2L977.294 566.858L984.492 560.028L984.488 560.033Z" fill="#E5AE9B"/>
<path fill-rule="evenodd" clip-rule="evenodd" d="M961.803 500.764L952.567 510.23L957.185 508.486L961.803 500.764ZM952.567 510.23L950.234 509.941L948.311 517.648L957.955 512.582L952.567 510.23ZM948.311 517.648L946.081 529.541L954.168 524.416L948.311 517.648ZM946.081 529.541L936.624 517.923L936.26 527.852L946.081 529.541ZM936.26 527.852L927.486 534.879L936.26 537.087V527.852ZM936.26 537.087L932.471 547.189L938.197 550.062L936.26 537.087ZM938.197 550.062L949.838 539.843L942.598 537.968L938.197 550.062ZM949.838 539.843L963.274 536.713L954.051 529.859L949.838 539.843ZM936.624 517.923L945.002 520.102L944.245 513.276L936.624 517.923ZM944.245 513.276L950.234 509.941L953.703 503.824L944.245 513.276ZM990.382 528.964L987.757 539.036L993.762 533.221L990.382 528.964ZM993.762 533.221L991.926 539.917L997.593 537.808L993.762 533.221ZM987.757 539.036L985.019 537.029L980.385 543.38L987.757 539.036ZM980.385 543.38L975.941 541.85L973.303 548.665L980.385 543.38ZM973.299 548.665L963.32 544.608L962.665 550.873L973.303 548.665H973.299ZM948.238 547.767L950.321 556.397L957.419 553.555L948.238 547.767ZM980.805 552.557L967.792 554.275L972.748 557.751L975.49 561.2L980.81 552.557H980.805ZM934.075 556.887L936.055 561.621L932.718 565.604L940.019 561.2L934.075 556.887Z" fill="#EBCFC6"/>
<path fill-rule="evenodd" clip-rule="evenodd" d="M957.185 508.484L952.567 510.229L957.956 512.583L957.185 508.484ZM950.234 509.942L944.245 513.274L948.312 517.648L950.234 509.942ZM948.312 517.648L954.166 524.415L960.081 521.414L948.312 517.648ZM936.623 517.923L946.08 529.539L945.002 520.102L936.623 517.923ZM936.623 517.923L932.761 525.816L936.26 527.851L936.623 517.923ZM936.26 527.851L936.259 537.087L946.08 529.539L936.26 527.851ZM946.08 529.539L949.839 539.842L954.051 529.858L946.08 529.539ZM949.839 539.842L963.32 544.603L963.274 536.712L949.839 539.842ZM949.839 539.842L938.197 550.061L948.237 547.766L949.839 539.842ZM948.237 547.766L943.881 555.286L950.32 556.396L948.237 547.766ZM938.197 550.061L932.47 547.189L934.073 556.887L938.197 550.061ZM938.197 550.061L942.598 537.967L936.259 537.087L938.197 550.061ZM963.319 544.607L973.302 548.664L975.94 541.85L963.32 544.603L963.319 544.607ZM975.94 541.85L980.383 543.38L985.017 537.029L975.94 541.85ZM985.017 537.029L987.755 539.035L990.38 528.963L985.017 537.029ZM973.302 548.664L967.792 554.275L980.809 552.556L973.302 548.664ZM999.21 526.379L993.76 533.219L997.596 537.807L999.21 526.379Z" fill="#EDD9D3"/>
<path fill-rule="evenodd" clip-rule="evenodd" d="M961.803 500.764L957.184 508.485L957.956 512.583L961.803 500.764ZM957.956 512.583L948.312 517.65L960.083 521.415L957.956 512.583ZM960.083 521.415L954.168 524.416L954.051 529.859L960.083 521.415ZM953.7 503.824L950.234 509.943L951.327 510.13L953.7 503.824ZM999.211 526.379L990.382 528.962L993.762 533.219L999.211 526.379ZM946.081 529.54L936.259 537.087L949.84 539.842L946.081 529.54ZM949.84 539.842L948.236 547.767L963.319 544.603L949.84 539.842ZM963.319 544.603L975.94 541.85L963.274 536.713L963.319 544.603Z" fill="white"/>
</g>
<defs>
<filter id="filter0_b_2088_108" x="-72.3" y="-72.3" width="2064.6" height="1224.6" filterUnits="userSpaceOnUse" color-interpolation-filters="sRGB">
<feFlood flood-opacity="0" result="BackgroundImageFix"/>
<feGaussianBlur in="BackgroundImageFix" stdDeviation="36.15"/>
<feComposite in2="SourceAlpha" operator="in" result="effect1_backgroundBlur_2088_108"/>
<feBlend mode="normal" in="SourceGraphic" in2="effect1_backgroundBlur_2088_108" result="shape"/>
</filter>
<filter id="filter1_f_2088_108" x="800.194" y="-263.159" width="1600.72" height="1319.88" filterUnits="userSpaceOnUse" color-interpolation-filters="sRGB">
<feFlood flood-opacity="0" result="BackgroundImageFix"/>
<feBlend mode="normal" in="SourceGraphic" in2="BackgroundImageFix" result="shape"/>
<feGaussianBlur stdDeviation="100" result="effect1_foregroundBlur_2088_108"/>
</filter>
<filter id="filter2_f_2088_108" x="-266.884" y="-26.3379" width="1426.74" height="1572.63" filterUnits="userSpaceOnUse" color-interpolation-filters="sRGB">
<feFlood flood-opacity="0" result="BackgroundImageFix"/>
<feBlend mode="normal" in="SourceGraphic" in2="BackgroundImageFix" result="shape"/>
<feGaussianBlur stdDeviation="100" result="effect1_foregroundBlur_2088_108"/>
</filter>
<filter id="filter3_d_2088_108" x="-231.526" y="649.848" width="680.041" height="635.772" filterUnits="userSpaceOnUse" color-interpolation-filters="sRGB">
<feFlood flood-opacity="0" result="BackgroundImageFix"/>
<feColorMatrix in="SourceAlpha" type="matrix" values="0 0 0 0 0 0 0 0 0 0 0 0 0 0 0 0 0 0 127 0" result="hardAlpha"/>
<feOffset dx="2" dy="12"/>
<feGaussianBlur stdDeviation="17.05"/>
<feComposite in2="hardAlpha" operator="out"/>
<feColorMatrix type="matrix" values="0 0 0 0 0 0 0 0 0 0 0 0 0 0 0 0 0 0 0.25 0"/>
<feBlend mode="normal" in2="BackgroundImageFix" result="effect1_dropShadow_2088_108"/>
<feBlend mode="normal" in="SourceGraphic" in2="effect1_dropShadow_2088_108" result="shape"/>
</filter>
<filter id="filter4_d_2088_108" x="-291.526" y="709.848" width="680.041" height="635.772" filterUnits="userSpaceOnUse" color-interpolation-filters="sRGB">
<feFlood flood-opacity="0" result="BackgroundImageFix"/>
<feColorMatrix in="SourceAlpha" type="matrix" values="0 0 0 0 0 0 0 0 0 0 0 0 0 0 0 0 0 0 127 0" result="hardAlpha"/>
<feOffset dx="2" dy="12"/>
<feGaussianBlur stdDeviation="17.05"/>
<feComposite in2="hardAlpha" operator="out"/>
<feColorMatrix type="matrix" values="0 0 0 0 0 0 0 0 0 0 0 0 0 0 0 0 0 0 0.25 0"/>
<feBlend mode="normal" in2="BackgroundImageFix" result="effect1_dropShadow_2088_108"/>
<feBlend mode="normal" in="SourceGraphic" in2="effect1_dropShadow_2088_108" result="shape"/>
</filter>
<filter id="filter5_d_2088_108" x="1447.85" y="-207.26" width="794.361" height="764.274" filterUnits="userSpaceOnUse" color-interpolation-filters="sRGB">
<feFlood flood-opacity="0" result="BackgroundImageFix"/>
<feColorMatrix in="SourceAlpha" type="matrix" values="0 0 0 0 0 0 0 0 0 0 0 0 0 0 0 0 0 0 127 0" result="hardAlpha"/>
<feOffset dx="2" dy="12"/>
<feGaussianBlur stdDeviation="17.05"/>
<feComposite in2="hardAlpha" operator="out"/>
<feColorMatrix type="matrix" values="0 0 0 0 0 0 0 0 0 0 0 0 0 0 0 0 0 0 0.25 0"/>
<feBlend mode="normal" in2="BackgroundImageFix" result="effect1_dropShadow_2088_108"/>
<feBlend mode="normal" in="SourceGraphic" in2="effect1_dropShadow_2088_108" result="shape"/>
</filter>
<filter id="filter6_d_2088_108" x="1507.85" y="-267.26" width="794.361" height="764.274" filterUnits="userSpaceOnUse" color-interpolation-filters="sRGB">
<feFlood flood-opacity="0" result="BackgroundImageFix"/>
<feColorMatrix in="SourceAlpha" type="matrix" values="0 0 0 0 0 0 0 0 0 0 0 0 0 0 0 0 0 0 127 0" result="hardAlpha"/>
<feOffset dx="2" dy="12"/>
<feGaussianBlur stdDeviation="17.05"/>
<feComposite in2="hardAlpha" operator="out"/>
<feColorMatrix type="matrix" values="0 0 0 0 0 0 0 0 0 0 0 0 0 0 0 0 0 0 0.25 0"/>
<feBlend mode="normal" in2="BackgroundImageFix" result="effect1_dropShadow_2088_108"/>
<feBlend mode="normal" in="SourceGraphic" in2="effect1_dropShadow_2088_108" result="shape"/>
</filter>
<filter id="filter7_d_2088_108" x="1567.85" y="-327.261" width="794.361" height="764.274" filterUnits="userSpaceOnUse" color-interpolation-filters="sRGB">
<feFlood flood-opacity="0" result="BackgroundImageFix"/>
<feColorMatrix in="SourceAlpha" type="matrix" values="0 0 0 0 0 0 0 0 0 0 0 0 0 0 0 0 0 0 127 0" result="hardAlpha"/>
<feOffset dx="2" dy="12"/>
<feGaussianBlur stdDeviation="17.05"/>
<feComposite in2="hardAlpha" operator="out"/>
<feColorMatrix type="matrix" values="0 0 0 0 0 0 0 0 0 0 0 0 0 0 0 0 0 0 0.25 0"/>
<feBlend mode="normal" in2="BackgroundImageFix" result="effect1_dropShadow_2088_108"/>
<feBlend mode="normal" in="SourceGraphic" in2="effect1_dropShadow_2088_108" result="shape"/>
</filter>
<filter id="filter8_d_2088_108" x="-357.154" y="768.421" width="671.213" height="600.738" filterUnits="userSpaceOnUse" color-interpolation-filters="sRGB">
<feFlood flood-opacity="0" result="BackgroundImageFix"/>
<feColorMatrix in="SourceAlpha" type="matrix" values="0 0 0 0 0 0 0 0 0 0 0 0 0 0 0 0 0 0 127 0" result="hardAlpha"/>
<feOffset dx="2" dy="12"/>
<feGaussianBlur stdDeviation="17.05"/>
<feComposite in2="hardAlpha" operator="out"/>
<feColorMatrix type="matrix" values="0 0 0 0 0 0 0 0 0 0 0 0 0 0 0 0 0 0 0.25 0"/>
<feBlend mode="normal" in2="BackgroundImageFix" result="effect1_dropShadow_2088_108"/>
<feBlend mode="normal" in="SourceGraphic" in2="effect1_dropShadow_2088_108" result="shape"/>
</filter>
<clipPath id="clip0_2088_108">
<rect width="1920" height="1080" fill="white"/>
</clipPath>
</defs>
</svg>
