<svg width="1920" height="1080" viewBox="0 0 1920 1080" fill="none" xmlns="http://www.w3.org/2000/svg">
<g clip-path="url(#clip0_2047_1212)" filter="url(#filter0_b_2047_1212)">
<rect width="1920" height="1080" fill="#730C0C"/>
<g filter="url(#filter1_f_2047_1212)">
<path fill-rule="evenodd" clip-rule="evenodd" d="M1008.52 308.019C977.913 208.197 1085.34 121.308 1173.07 54.3694C1260.71 -12.5065 1371.55 -73.6495 1497.91 -65.4116C1618.67 -57.5388 1701.72 37.4905 1803.85 95.494C1891.42 145.228 1987.75 181.051 2052.6 249.618C2128.71 330.103 2217.73 421.55 2202.12 516.629C2186.49 611.815 2064.56 660.641 1975.23 720.701C1891.81 776.793 1813.91 848.172 1701.36 853.311C1590.35 858.379 1470.34 816.004 1391.54 747.352C1321.03 685.921 1374.27 584.754 1314.79 516.522C1236.35 426.553 1040.53 412.388 1008.52 308.019Z" fill="#931F1F"/>
<path d="M1172.16 53.1769C1128.31 86.6343 1079.38 125.194 1045.25 167.927C1011.11 210.667 991.574 257.861 1007.09 308.459C1015.22 334.975 1033.74 355.672 1057.97 373.192C1082.19 390.703 1112.25 405.123 1143.64 419.042C1151.19 422.392 1158.82 425.712 1166.46 429.04C1190.64 439.561 1214.99 450.157 1237.65 461.994C1267.47 477.57 1294.23 495.222 1313.66 517.508C1341.64 549.609 1344.38 589.091 1347.13 628.786C1347.26 630.721 1347.4 632.657 1347.53 634.593C1350.47 676.059 1354.79 717.319 1390.56 748.483C1469.65 817.393 1590.04 859.895 1701.43 854.809C1758.02 852.225 1805.87 832.984 1849.97 807.411C1878.65 790.782 1905.83 771.41 1932.8 752.198C1947.22 741.92 1961.58 731.688 1976.07 721.946C1995.55 708.851 2016.58 696.29 2037.76 683.641C2040.82 681.813 2043.88 679.983 2046.94 678.149C2071.18 663.639 2095.33 648.901 2117.19 633.051C2160.88 601.379 2195.68 565.071 2203.6 516.872C2211.5 468.783 2192.91 421.754 2163 376.82C2134.48 333.954 2095.5 292.775 2058.96 254.166C2057.2 252.301 2055.44 250.441 2053.69 248.588C2021.1 214.136 1980.65 187.95 1937.47 164.18C1917.91 153.415 1897.77 143.134 1877.54 132.807C1875.44 131.732 1873.33 130.656 1871.22 129.58C1848.87 118.156 1826.45 106.605 1804.59 94.1897C1779.13 79.7293 1754.84 62.9524 1730.82 45.7693C1725.3 41.8217 1719.79 37.8517 1714.28 33.8836C1695.85 20.5929 1677.44 7.32364 1658.69 -5.0109C1609.98 -37.0566 1558.77 -62.947 1498.01 -66.9084C1371.11 -75.182 1259.89 -13.7718 1172.16 53.1769Z" stroke="#723137" stroke-width="3"/>
</g>
<g filter="url(#filter2_f_2047_1212)">
<path fill-rule="evenodd" clip-rule="evenodd" d="M678.523 1337.59C612.814 1358.69 536.736 1338.51 461.107 1308.08C386.176 1277.93 317.768 1224.58 248.438 1164.55C153.375 1082.23 38.7771 1019.72 -16.4694 894.545C-76.6933 758.097 -76.1106 610.026 -50.2888 487.731C-22.5868 356.531 30.7442 232.141 132.029 191.242C231.769 150.967 367.055 180.309 476.582 274.981C576.462 361.315 579.145 539.858 664.371 651.386C747.336 759.953 907.003 762.72 950.004 894.501C991.537 1021.78 891.529 1101.02 839.042 1186.69C797.237 1254.92 748.729 1315.04 678.523 1337.59Z" fill="#931F1F"/>
</g>
<path d="M294.204 1313.54C349.977 1334.79 406.602 1348.81 456.071 1332.65C508.884 1315.41 545.717 1270.95 577.455 1221.05C586.476 1206.86 597.315 1192.89 608.382 1178.62C609.467 1177.22 610.555 1175.81 611.644 1174.41C623.809 1158.69 636.046 1142.58 646.118 1125.54C666.293 1091.4 677.845 1053.4 662.946 1006.99C647.502 958.874 609.79 934.803 568.824 913.114C563.396 910.24 557.913 907.408 552.415 904.569C516.279 885.907 479.488 866.906 453.509 833.438C425.748 797.675 410.458 751.93 395.297 706.573C393.631 701.589 391.967 696.609 390.288 691.648C373.381 641.697 354.963 593.6 318.029 562.552C237.509 494.863 136.947 474.802 61.9507 505.279C23.7886 520.786 -5.5227 551.412 -28.017 590.007C-50.5101 628.6 -66.2428 675.253 -77.2192 722.995C-97.6949 812.055 -99.7128 919.659 -56.333 1018.24C-36.3857 1063.56 -5.21651 1097.28 29.6028 1126.96C47.008 1141.8 65.3454 1155.65 83.6521 1169.43L85.1065 1170.52C102.938 1183.94 120.716 1197.32 137.621 1211.56C188.4 1254.32 238.718 1292.39 294.204 1313.54Z" fill="#A0131A" stroke="#471F23" stroke-width="3"/>
<path d="M1406.11 37.7774C1368.83 65.1625 1327.19 96.7531 1298.23 131.877C1269.26 167.009 1252.74 205.972 1266.31 247.959C1273.42 269.965 1289.4 287.182 1310.21 301.781C1331.01 316.374 1356.79 328.44 1383.67 340.093C1390.15 342.899 1396.69 345.68 1403.24 348.467C1423.95 357.278 1444.8 366.148 1464.21 376.034C1489.77 389.043 1512.7 403.74 1529.39 422.209C1553.41 448.787 1555.95 481.301 1558.5 514.095C1558.63 515.687 1558.75 517.28 1558.88 518.873C1561.61 553.121 1565.51 587.306 1596.32 613.285C1664.3 670.612 1767.42 706.335 1862.61 702.718C1942.44 699.684 2001.81 658.992 2059.9 619.171C2072.16 610.771 2084.35 602.41 2096.67 594.449C2113.24 583.745 2131.14 573.49 2149.17 563.159C2151.78 561.666 2154.38 560.172 2156.99 558.675C2177.62 546.824 2198.19 534.78 2216.79 521.805C2253.96 495.885 2283.6 466.04 2290.13 426.169C2296.64 386.399 2280.46 347.406 2254.67 310.145C2230.06 274.596 2196.53 240.389 2165.11 208.334C2163.59 206.783 2162.08 205.237 2160.57 203.697C2132.53 175.066 2097.81 153.228 2060.78 133.38C2044.01 124.39 2026.75 115.797 2009.41 107.166C2007.61 106.268 2005.8 105.37 2004 104.471C1984.84 94.9244 1965.63 85.2746 1946.89 74.9144C1925.07 62.8502 1904.24 48.8797 1883.62 34.5714C1878.88 31.2849 1874.16 27.9795 1869.43 24.6756C1853.61 13.6085 1837.81 2.55641 1821.72 -7.72511C1779.93 -34.4383 1736.01 -56.0942 1684.03 -59.6844C1575.49 -67.1809 1480.75 -17.0416 1406.11 37.7774Z" fill="#A0131A" stroke="#471F23" stroke-width="3"/>
<path d="M201.777 1258.22C248.854 1274.2 296.858 1284.27 339.475 1269.93C384.96 1254.62 417.454 1217.51 445.719 1176.11C453.747 1164.36 463.319 1152.72 473.099 1140.84C474.058 1139.67 475.019 1138.51 475.981 1137.34C486.729 1124.25 497.556 1110.84 506.559 1096.71C524.589 1068.42 535.404 1037.11 523.761 999.536C511.685 960.563 479.958 941.811 445.55 925.135C440.984 922.922 436.372 920.745 431.749 918.564C401.37 904.227 370.523 889.669 349.22 863.109C326.444 834.711 314.517 797.901 302.665 761.323C301.363 757.307 300.063 753.294 298.749 749.294C285.525 709.04 270.937 670.211 240.084 645.738C172.94 592.479 87.577 578.548 22.8552 605.165C-42.986 632.241 -80.137 707.68 -101.114 785.861C-120.71 858.893 -125.014 946.636 -90.3237 1025.96C-74.3586 1062.47 -48.5296 1089.22 -19.523 1112.57C-5.02376 1124.25 10.293 1135.09 25.5756 1145.87L26.7877 1146.73C41.6768 1157.23 56.5123 1167.69 70.5822 1178.88C112.874 1212.49 154.913 1242.31 201.777 1258.22Z" fill="#CD1921" stroke="#60292F" stroke-width="3"/>
<g filter="url(#filter3_d_2047_1212)">
<path fill-rule="evenodd" clip-rule="evenodd" d="M213.583 1230.07C171.887 1245.12 126.602 1240.04 82.2786 1229.76C38.3646 1219.58 0.00437233 1197.26 -38.4729 1171.63C-91.2317 1136.48 -157.293 1112.63 -182.77 1053.2C-210.542 988.417 -200.259 913.695 -176.232 850.281C-150.455 782.251 -109.422 715.936 -44.5902 688.518C19.2537 661.518 100.221 667.249 161.018 707.657C216.461 744.506 206.137 834.379 250.907 884.917C294.49 934.115 392.185 924.807 409.712 988.391C426.64 1049.81 360.021 1096.48 322.102 1143.2C291.901 1180.42 258.133 1213.99 213.583 1230.07Z" fill="#E6333B"/>
</g>
<g filter="url(#filter4_d_2047_1212)">
<path fill-rule="evenodd" clip-rule="evenodd" d="M153.583 1290.07C111.887 1305.12 66.6021 1300.04 22.2786 1289.76C-21.6354 1279.58 -59.9956 1257.26 -98.4729 1231.63C-151.232 1196.48 -217.293 1172.63 -242.77 1113.2C-270.542 1048.42 -260.259 973.695 -236.232 910.281C-210.455 842.251 -169.422 775.936 -104.59 748.518C-40.7463 721.519 40.2212 727.249 101.018 767.657C156.461 804.506 146.137 894.379 190.907 944.918C234.49 994.115 332.185 984.807 349.712 1048.39C366.64 1109.81 300.021 1156.48 262.102 1203.2C231.901 1240.42 198.133 1273.99 153.583 1290.07Z" fill="#EC6067"/>
</g>
<path d="M1530.59 -17.556C1498.72 10.5624 1463.1 42.9577 1437.97 78.4876C1412.83 114.024 1398.01 152.924 1408.14 193.969C1418.76 237.027 1459.5 260.409 1503.61 281.904C1508.94 284.502 1514.32 287.072 1519.72 289.647C1536.74 297.779 1553.87 305.959 1569.78 315.183C1590.71 327.319 1609.39 341.184 1622.77 358.943C1642.06 384.541 1643.27 416.648 1644.49 449.029C1644.55 450.592 1644.61 452.156 1644.67 453.719C1645.99 487.455 1648.28 521.152 1673.31 546.029C1728.49 600.882 1813.64 633.389 1893.29 627.15C1933.81 623.976 1968.34 607.333 2000.27 585.627C2021.03 571.515 2040.79 555.181 2060.37 538.994C2070.84 530.342 2081.26 521.731 2091.75 513.525C2105.86 502.483 2121.08 491.847 2136.41 481.13C2138.62 479.581 2140.84 478.031 2143.06 476.478C2160.6 464.186 2178.1 451.701 2193.98 438.351C2225.74 411.661 2251.25 381.349 2257.79 341.84C2264.32 302.425 2251.94 264.356 2231.44 228.202C2211.9 193.729 2184.87 160.83 2159.55 130.012C2158.33 128.52 2157.11 127.033 2155.89 125.551C2133.27 97.9911 2104.88 77.3431 2074.52 58.7376C2060.78 50.3129 2046.61 42.2944 2032.39 34.2454C2030.91 33.4071 2029.43 32.5685 2027.94 31.729C2012.22 22.8238 1996.48 13.822 1981.14 4.10618C1963.29 -7.20215 1946.32 -20.424 1929.51 -33.9958C1925.66 -37.111 1921.81 -40.2457 1917.96 -43.3797C1905.07 -53.8828 1892.19 -64.3776 1879.04 -74.101C1844.91 -99.3598 1808.78 -119.613 1765.38 -121.722C1674.87 -126.12 1594.35 -73.8149 1530.59 -17.556Z" fill="#CD1921" stroke="#60292F" stroke-width="3"/>
<g filter="url(#filter5_d_2047_1212)">
<path fill-rule="evenodd" clip-rule="evenodd" d="M1482.3 113.186C1466.39 37.912 1534.28 -31.3026 1589.61 -84.7619C1644.89 -138.171 1714.16 -187.848 1790.98 -185.047C1864.39 -182.371 1912.41 -112.197 1973.08 -70.7808C2025.1 -35.2694 2082.85 -10.6071 2120.5 39.8909C2164.69 99.1654 2216.45 166.444 2204.31 239.375C2192.16 312.387 2116.47 352.977 2060.35 401.236C2007.94 446.306 1958.48 502.88 1889.71 509.9C1821.89 516.823 1749.89 487.817 1703.73 437.638C1662.43 392.738 1697.68 314.128 1663.29 263.739C1617.95 197.295 1498.94 191.889 1482.3 113.186Z" fill="#E6333B"/>
</g>
<g filter="url(#filter6_d_2047_1212)">
<path fill-rule="evenodd" clip-rule="evenodd" d="M1542.3 53.186C1526.39 -22.088 1594.28 -91.3026 1649.61 -144.762C1704.89 -198.171 1774.16 -247.848 1850.98 -245.047C1924.39 -242.371 1972.41 -172.197 2033.08 -130.781C2085.1 -95.2694 2142.85 -70.6071 2180.5 -20.1091C2224.69 39.1654 2276.45 106.444 2264.31 179.375C2252.16 252.387 2176.47 292.977 2120.35 341.236C2067.94 386.306 2018.48 442.88 1949.71 449.9C1881.89 456.823 1809.89 427.817 1763.73 377.638C1722.43 332.738 1757.68 254.128 1723.29 203.739C1677.95 137.295 1558.94 131.889 1542.3 53.186Z" fill="#EC6067"/>
</g>
<g filter="url(#filter7_d_2047_1212)">
<path fill-rule="evenodd" clip-rule="evenodd" d="M1602.3 -6.81407C1586.39 -82.088 1654.28 -151.303 1709.61 -204.762C1764.89 -258.171 1834.16 -307.848 1910.98 -305.048C1984.39 -302.371 2032.41 -232.197 2093.08 -190.781C2145.1 -155.269 2202.85 -130.607 2240.5 -80.1092C2284.69 -20.8346 2336.45 46.444 2324.31 119.375C2312.16 192.387 2236.47 232.977 2180.35 281.236C2127.94 326.306 2078.48 382.88 2009.71 389.9C1941.89 396.823 1869.89 367.817 1823.73 317.638C1782.43 272.737 1817.68 194.128 1783.29 143.739C1737.95 77.295 1618.94 71.8888 1602.3 -6.81407Z" fill="#EC9397"/>
</g>
<g filter="url(#filter8_d_2047_1212)">
<path fill-rule="evenodd" clip-rule="evenodd" d="M75.6723 1312.5C34.1056 1327.82 -10.4603 1324.25 -53.9376 1315.75C-97.0133 1307.32 -134.279 1287.3 -171.572 1264.15C-222.706 1232.41 -287.277 1211.69 -310.825 1156.3C-336.496 1095.93 -324.331 1025.15 -298.904 964.676C-271.625 899.795 -229.333 836.123 -164.595 808.508C-100.844 781.314 -21.0708 784.539 37.8569 821.026C91.5944 854.299 78.9818 939.371 121.816 985.847C163.513 1031.09 260.204 1019.68 275.793 1079.2C290.85 1136.68 223.828 1182.51 185.138 1227.62C154.322 1263.54 120.083 1296.13 75.6723 1312.5Z" fill="#EC9397"/>
</g>
<g clip-path="url(#clip1_2047_1212)">
<path d="M979.738 547.258C975.496 547.317 980.541 549.444 986.08 550.296C987.61 549.101 988.998 547.893 990.236 546.717C986.786 547.562 983.275 547.581 979.738 547.258Z" fill="#EC9397"/>
<path d="M1002.51 541.583C1005.04 538.096 1006.88 534.279 1007.53 530.332C1006.96 533.146 1005.43 535.575 1004 538.139C996.066 543.131 1003.25 535.174 1003.99 532.15C995.464 542.881 1002.82 538.585 1002.51 541.583Z" fill="#EC9397"/>
<path d="M1010.92 519.714C1011.43 512.075 1009.41 514.49 1008.73 517.405C1009.53 517.816 1010.15 522.79 1010.92 519.714Z" fill="#EC9397"/>
<path d="M963.651 415.303C965.916 415.709 968.543 416.02 968.175 416.561C970.652 416.018 971.214 415.517 963.651 415.303Z" fill="#EC9397"/>
<path d="M968.175 416.561L966.574 416.891L968.064 416.759L968.175 416.561Z" fill="#EC9397"/>
<path d="M1038.78 522.61C1039.03 529.47 1036.77 532.799 1034.73 538.691L1031.07 540.523C1028.07 546.349 1031.36 544.222 1029.21 548.856C1024.52 553.02 1014.99 561.887 1011.94 562.696C1009.72 562.647 1013.45 560.069 1013.94 559.059C1007.67 563.364 1008.91 565.522 999.318 568.138L999.037 567.514C975.385 578.64 942.529 556.592 942.961 526.508C942.709 528.417 942.243 527.941 941.719 528.713C940.499 513.234 948.868 497.687 962.985 491.339C976.792 484.505 992.979 487.309 1002.87 496.525C997.437 489.41 986.623 481.868 973.808 482.574C961.254 482.772 949.511 490.749 945.591 499.408C939.16 503.456 938.414 515.014 935.611 517.129C931.841 544.836 942.704 556.807 961.08 570.888C963.972 572.838 961.894 573.133 962.286 574.618C956.18 571.759 950.59 567.444 945.993 562.161C948.432 565.73 951.064 569.2 954.466 571.927C948.71 569.977 941.02 557.98 938.775 557.491C948.698 575.255 979.035 588.645 994.92 582.002C987.57 582.273 978.232 582.153 969.973 579.101C966.505 577.316 961.788 573.619 962.631 572.927C984.309 581.024 1006.7 579.06 1025.46 564.025C1030.23 560.31 1035.45 553.988 1036.95 553.901C1034.68 557.312 1037.34 555.541 1035.6 558.553C1040.35 550.886 1033.53 555.433 1040.51 545.313L1043.09 548.863C1042.13 542.499 1051 534.77 1050.1 524.704C1052.13 521.626 1052.37 528.016 1050.21 535.098C1053.2 527.242 1051 525.979 1051.77 519.497C1052.6 521.675 1053.69 523.991 1054.25 526.291C1052.3 518.699 1056.25 513.505 1057.23 509.093C1056.26 508.666 1054.22 512.45 1053.75 503.482C1053.82 499.587 1054.83 501.44 1055.22 500.482C1054.46 500.043 1052.45 497.056 1051.23 491.329C1052.12 489.984 1053.6 494.818 1054.8 495.017C1054.03 490.463 1052.69 486.991 1052.64 483.497C1049.12 476.146 1051.4 484.476 1048.54 480.341C1044.8 468.663 1051.65 477.631 1052.11 472.324C1057.79 480.546 1061.02 493.289 1062.51 498.567C1061.38 492.132 1059.54 485.898 1057.31 479.866C1059.03 480.591 1054.53 466.625 1059.55 475.874C1054.19 456.158 1036.61 437.736 1020.44 429.091C1022.42 430.902 1024.92 433.175 1024.02 433.531C1015.98 428.744 1017.39 428.371 1016.24 426.348C1009.69 423.683 1009.26 426.563 1004.92 426.353C992.571 419.804 990.191 420.501 978.827 416.398L979.344 418.813C971.163 416.089 969.813 419.847 960.971 418.822C960.433 418.402 963.804 417.302 966.578 416.898C958.669 417.942 959.04 415.34 951.3 417.186C953.208 415.848 955.224 414.963 957.259 413.825C950.809 414.217 941.861 417.578 944.623 414.521C934.103 419.214 915.418 425.803 904.932 435.632L904.602 433.43C899.797 439.197 883.65 450.653 882.363 458.122L881.079 458.422C878.579 462.655 876.961 467.452 874.978 471.807C871.708 477.378 870.185 473.95 870.651 474.824C864.219 487.862 861.025 498.817 858.265 507.802C860.231 510.741 858.312 525.495 859.056 537.303C855.826 595.62 899.991 652.243 948.266 665.316C955.342 667.847 965.865 667.75 974.816 668.009C964.255 664.99 962.89 666.409 952.603 662.823C945.183 659.329 943.556 655.34 938.301 650.779L940.381 654.455C930.072 650.807 934.386 649.941 926 647.285L928.221 644.384C924.881 644.132 919.372 638.754 917.866 635.777L914.211 635.921C909.82 630.504 907.48 626.599 907.65 623.575L906.469 625.678C905.131 623.381 890.313 605.36 898 609.555C896.572 608.25 894.674 607.431 892.615 603.691L894.18 601.902C890.481 597.143 887.371 591.043 887.607 589.01C889.581 591.676 890.95 592.174 892.306 592.629C882.963 569.453 882.439 591.352 875.363 569.037L876.86 568.917C875.713 567.189 875.016 565.312 874.093 563.471L874.744 556.979C868.018 549.203 872.863 523.916 873.833 510.047C874.506 504.407 879.448 498.404 883.206 488.99L880.916 488.596C885.293 480.961 905.91 457.936 915.458 459.121C920.083 453.311 914.539 459.1 913.635 457.636C923.794 447.124 926.989 450.209 933.845 448.318C941.24 443.93 927.499 450.03 931.005 446.645C943.787 443.38 940.064 439.223 956.74 437.566C958.499 438.567 952.658 439.112 951.192 440.41C961.842 435.2 984.895 436.385 999.869 443.302C1017.24 451.42 1036.76 475.419 1037.53 497.998L1038.41 498.234C1037.97 507.209 1039.78 517.589 1036.63 527.124L1038.78 522.61Z" fill="#EC9397"/>
<path d="M933.43 553.081L932.835 556.056C935.623 559.842 937.836 563.945 941.396 566.905C938.834 561.906 936.931 559.84 933.43 553.081Z" fill="#EC9397"/>
<path d="M940.022 552.822C938.546 551.191 937.673 549.227 936.695 547.27C937.63 550.709 939.545 553.665 941.328 556.67L940.022 552.822Z" fill="#EC9397"/>
<path d="M1056.67 527.473L1056.04 529.036C1054.9 537.152 1052.43 545.183 1048.65 552.628C1052.83 544.772 1055.53 536.179 1056.67 527.473Z" fill="#EC9397"/>
<path d="M964.489 413.268C967.358 412.217 971.541 412.692 974.585 412C970.618 412.333 966.67 412.531 962.772 413.034L964.489 413.268Z" fill="#EC9397"/>
<path d="M863.78 466.812C864.441 472.931 859.176 475.305 864.947 471.271C868.04 464.305 863.738 469.347 863.78 466.812Z" fill="#EC9397"/>
<path d="M857 495.13C858.329 491.051 858.57 488.601 859.077 486.24C855.403 490.935 857.387 491.936 857 495.13Z" fill="#EC9397"/>
</g>
</g>
<defs>
<filter id="filter0_b_2047_1212" x="-72.3" y="-72.3" width="2064.6" height="1224.6" filterUnits="userSpaceOnUse" color-interpolation-filters="sRGB">
<feFlood flood-opacity="0" result="BackgroundImageFix"/>
<feGaussianBlur in="BackgroundImageFix" stdDeviation="36.15"/>
<feComposite in2="SourceAlpha" operator="in" result="effect1_backgroundBlur_2047_1212"/>
<feBlend mode="normal" in="SourceGraphic" in2="effect1_backgroundBlur_2047_1212" result="shape"/>
</filter>
<filter id="filter1_f_2047_1212" x="800.191" y="-269.159" width="1606.73" height="1325.88" filterUnits="userSpaceOnUse" color-interpolation-filters="sRGB">
<feFlood flood-opacity="0" result="BackgroundImageFix"/>
<feBlend mode="normal" in="SourceGraphic" in2="BackgroundImageFix" result="shape"/>
<feGaussianBlur stdDeviation="100" result="effect1_foregroundBlur_2047_1212"/>
</filter>
<filter id="filter2_f_2047_1212" x="-266.884" y="-26.338" width="1426.74" height="1572.63" filterUnits="userSpaceOnUse" color-interpolation-filters="sRGB">
<feFlood flood-opacity="0" result="BackgroundImageFix"/>
<feBlend mode="normal" in="SourceGraphic" in2="BackgroundImageFix" result="shape"/>
<feGaussianBlur stdDeviation="100" result="effect1_foregroundBlur_2047_1212"/>
</filter>
<filter id="filter3_d_2047_1212" x="-231.526" y="649.848" width="680.041" height="635.772" filterUnits="userSpaceOnUse" color-interpolation-filters="sRGB">
<feFlood flood-opacity="0" result="BackgroundImageFix"/>
<feColorMatrix in="SourceAlpha" type="matrix" values="0 0 0 0 0 0 0 0 0 0 0 0 0 0 0 0 0 0 127 0" result="hardAlpha"/>
<feOffset dx="2" dy="12"/>
<feGaussianBlur stdDeviation="17.05"/>
<feComposite in2="hardAlpha" operator="out"/>
<feColorMatrix type="matrix" values="0 0 0 0 0 0 0 0 0 0 0 0 0 0 0 0 0 0 0.25 0"/>
<feBlend mode="normal" in2="BackgroundImageFix" result="effect1_dropShadow_2047_1212"/>
<feBlend mode="normal" in="SourceGraphic" in2="effect1_dropShadow_2047_1212" result="shape"/>
</filter>
<filter id="filter4_d_2047_1212" x="-291.526" y="709.848" width="680.041" height="635.772" filterUnits="userSpaceOnUse" color-interpolation-filters="sRGB">
<feFlood flood-opacity="0" result="BackgroundImageFix"/>
<feColorMatrix in="SourceAlpha" type="matrix" values="0 0 0 0 0 0 0 0 0 0 0 0 0 0 0 0 0 0 127 0" result="hardAlpha"/>
<feOffset dx="2" dy="12"/>
<feGaussianBlur stdDeviation="17.05"/>
<feComposite in2="hardAlpha" operator="out"/>
<feColorMatrix type="matrix" values="0 0 0 0 0 0 0 0 0 0 0 0 0 0 0 0 0 0 0.25 0"/>
<feBlend mode="normal" in2="BackgroundImageFix" result="effect1_dropShadow_2047_1212"/>
<feBlend mode="normal" in="SourceGraphic" in2="effect1_dropShadow_2047_1212" result="shape"/>
</filter>
<filter id="filter5_d_2047_1212" x="1447.85" y="-207.261" width="794.36" height="764.274" filterUnits="userSpaceOnUse" color-interpolation-filters="sRGB">
<feFlood flood-opacity="0" result="BackgroundImageFix"/>
<feColorMatrix in="SourceAlpha" type="matrix" values="0 0 0 0 0 0 0 0 0 0 0 0 0 0 0 0 0 0 127 0" result="hardAlpha"/>
<feOffset dx="2" dy="12"/>
<feGaussianBlur stdDeviation="17.05"/>
<feComposite in2="hardAlpha" operator="out"/>
<feColorMatrix type="matrix" values="0 0 0 0 0 0 0 0 0 0 0 0 0 0 0 0 0 0 0.25 0"/>
<feBlend mode="normal" in2="BackgroundImageFix" result="effect1_dropShadow_2047_1212"/>
<feBlend mode="normal" in="SourceGraphic" in2="effect1_dropShadow_2047_1212" result="shape"/>
</filter>
<filter id="filter6_d_2047_1212" x="1507.85" y="-267.261" width="794.36" height="764.274" filterUnits="userSpaceOnUse" color-interpolation-filters="sRGB">
<feFlood flood-opacity="0" result="BackgroundImageFix"/>
<feColorMatrix in="SourceAlpha" type="matrix" values="0 0 0 0 0 0 0 0 0 0 0 0 0 0 0 0 0 0 127 0" result="hardAlpha"/>
<feOffset dx="2" dy="12"/>
<feGaussianBlur stdDeviation="17.05"/>
<feComposite in2="hardAlpha" operator="out"/>
<feColorMatrix type="matrix" values="0 0 0 0 0 0 0 0 0 0 0 0 0 0 0 0 0 0 0.25 0"/>
<feBlend mode="normal" in2="BackgroundImageFix" result="effect1_dropShadow_2047_1212"/>
<feBlend mode="normal" in="SourceGraphic" in2="effect1_dropShadow_2047_1212" result="shape"/>
</filter>
<filter id="filter7_d_2047_1212" x="1567.85" y="-327.261" width="794.36" height="764.274" filterUnits="userSpaceOnUse" color-interpolation-filters="sRGB">
<feFlood flood-opacity="0" result="BackgroundImageFix"/>
<feColorMatrix in="SourceAlpha" type="matrix" values="0 0 0 0 0 0 0 0 0 0 0 0 0 0 0 0 0 0 127 0" result="hardAlpha"/>
<feOffset dx="2" dy="12"/>
<feGaussianBlur stdDeviation="17.05"/>
<feComposite in2="hardAlpha" operator="out"/>
<feColorMatrix type="matrix" values="0 0 0 0 0 0 0 0 0 0 0 0 0 0 0 0 0 0 0.25 0"/>
<feBlend mode="normal" in2="BackgroundImageFix" result="effect1_dropShadow_2047_1212"/>
<feBlend mode="normal" in="SourceGraphic" in2="effect1_dropShadow_2047_1212" result="shape"/>
</filter>
<filter id="filter8_d_2047_1212" x="-357.154" y="768.421" width="671.213" height="600.738" filterUnits="userSpaceOnUse" color-interpolation-filters="sRGB">
<feFlood flood-opacity="0" result="BackgroundImageFix"/>
<feColorMatrix in="SourceAlpha" type="matrix" values="0 0 0 0 0 0 0 0 0 0 0 0 0 0 0 0 0 0 127 0" result="hardAlpha"/>
<feOffset dx="2" dy="12"/>
<feGaussianBlur stdDeviation="17.05"/>
<feComposite in2="hardAlpha" operator="out"/>
<feColorMatrix type="matrix" values="0 0 0 0 0 0 0 0 0 0 0 0 0 0 0 0 0 0 0.25 0"/>
<feBlend mode="normal" in2="BackgroundImageFix" result="effect1_dropShadow_2047_1212"/>
<feBlend mode="normal" in="SourceGraphic" in2="effect1_dropShadow_2047_1212" result="shape"/>
</filter>
<clipPath id="clip0_2047_1212">
<rect width="1920" height="1080" fill="white"/>
</clipPath>
<clipPath id="clip1_2047_1212">
<rect width="205.505" height="256" fill="white" transform="translate(857 412)"/>
</clipPath>
</defs>
</svg>
