<svg width="1920" height="1080" viewBox="0 0 1920 1080" fill="none" xmlns="http://www.w3.org/2000/svg">
<g clip-path="url(#clip0_2088_154)" filter="url(#filter0_b_2088_154)">
<rect width="1920" height="1080" fill="#005380"/>
<g filter="url(#filter1_f_2088_154)">
<path fill-rule="evenodd" clip-rule="evenodd" d="M1005.52 311.019C974.913 211.197 1082.34 124.308 1170.07 57.3695C1257.71 -9.50646 1368.55 -70.6495 1494.91 -62.4116C1615.67 -54.5387 1698.72 40.4906 1800.85 98.494C1888.42 148.228 1984.75 184.051 2049.6 252.619C2125.71 333.103 2214.73 424.55 2199.12 519.629C2183.49 614.815 2061.56 663.641 1972.23 723.701C1888.81 779.793 1810.91 851.172 1698.36 856.311C1587.35 861.379 1467.34 819.004 1388.54 750.352C1318.03 688.921 1371.27 587.754 1311.79 519.522C1233.35 429.553 1037.53 415.388 1005.52 311.019Z" fill="#0084CC"/>
</g>
<g filter="url(#filter2_f_2088_154)">
<path fill-rule="evenodd" clip-rule="evenodd" d="M678.523 1337.59C612.814 1358.69 536.736 1338.51 461.107 1308.08C386.176 1277.93 317.768 1224.58 248.438 1164.55C153.375 1082.23 38.7771 1019.72 -16.4694 894.545C-76.6933 758.097 -76.1106 610.026 -50.2888 487.731C-22.5868 356.532 30.7442 232.141 132.029 191.242C231.769 150.967 367.055 180.309 476.582 274.981C576.462 361.315 579.145 539.858 664.371 651.386C747.336 759.953 907.003 762.72 950.004 894.501C991.537 1021.78 891.529 1101.02 839.042 1186.69C797.237 1254.92 748.729 1315.04 678.523 1337.59Z" fill="#0084CC"/>
</g>
<path d="M294.204 1313.54C349.977 1334.79 406.602 1348.81 456.071 1332.65C508.884 1315.41 545.717 1270.95 577.455 1221.05C586.476 1206.86 597.315 1192.89 608.382 1178.62C609.467 1177.22 610.555 1175.81 611.644 1174.41C623.809 1158.69 636.046 1142.58 646.118 1125.54C666.293 1091.41 677.845 1053.4 662.946 1006.99C647.502 958.874 609.79 934.804 568.824 913.114C563.396 910.24 557.913 907.409 552.415 904.569C516.279 885.907 479.488 866.906 453.509 833.439C425.748 797.676 410.458 751.93 395.297 706.573C393.631 701.589 391.967 696.609 390.288 691.648C373.381 641.698 354.963 593.6 318.029 562.553C237.509 494.864 136.947 474.803 61.9507 505.279C23.7886 520.787 -5.5227 551.413 -28.017 590.008C-50.5101 628.6 -66.2428 675.253 -77.2192 722.995C-97.6949 812.055 -99.7128 919.659 -56.333 1018.24C-36.3857 1063.57 -5.21651 1097.28 29.6028 1126.96C47.008 1141.8 65.3454 1155.65 83.6521 1169.43L85.1065 1170.52C102.938 1183.94 120.716 1197.32 137.621 1211.56C188.4 1254.32 238.718 1292.39 294.204 1313.54Z" fill="#007ABD" stroke="#05A7FF" stroke-width="3"/>
<path d="M1406.11 37.7774C1368.83 65.1625 1327.19 96.7531 1298.23 131.877C1269.26 167.009 1252.74 205.972 1266.31 247.959C1273.42 269.965 1289.4 287.182 1310.21 301.781C1331.01 316.374 1356.79 328.44 1383.67 340.093C1390.15 342.899 1396.69 345.68 1403.24 348.467C1423.95 357.278 1444.8 366.148 1464.21 376.034C1489.77 389.043 1512.7 403.74 1529.39 422.209C1553.41 448.787 1555.95 481.301 1558.5 514.095C1558.63 515.687 1558.75 517.28 1558.88 518.873C1561.61 553.121 1565.51 587.306 1596.32 613.285C1664.3 670.612 1767.42 706.335 1862.61 702.718C1942.44 699.684 2001.81 658.992 2059.9 619.171C2072.16 610.771 2084.35 602.41 2096.67 594.449C2113.24 583.745 2131.14 573.49 2149.17 563.159C2151.78 561.666 2154.38 560.172 2156.99 558.675C2177.62 546.824 2198.19 534.78 2216.79 521.805C2253.96 495.885 2283.6 466.04 2290.13 426.169C2296.64 386.399 2280.46 347.406 2254.67 310.145C2230.06 274.596 2196.53 240.389 2165.11 208.334C2163.59 206.783 2162.08 205.237 2160.57 203.697C2132.53 175.066 2097.81 153.228 2060.78 133.38C2044.01 124.39 2026.75 115.797 2009.41 107.166C2007.61 106.268 2005.8 105.37 2004 104.471C1984.84 94.9244 1965.63 85.2746 1946.89 74.9144C1925.07 62.8502 1904.24 48.8797 1883.62 34.5714C1878.88 31.2849 1874.16 27.9795 1869.43 24.6756C1853.61 13.6085 1837.81 2.55641 1821.72 -7.72511C1779.93 -34.4383 1736.01 -56.0942 1684.03 -59.6844C1575.49 -67.1809 1480.75 -17.0416 1406.11 37.7774Z" fill="#007ABD" stroke="#05A7FF" stroke-width="3"/>
<path d="M201.777 1258.22C248.854 1274.2 296.858 1284.27 339.475 1269.93C384.96 1254.62 417.454 1217.51 445.719 1176.11C453.747 1164.36 463.319 1152.72 473.099 1140.84C474.058 1139.67 475.019 1138.51 475.981 1137.34C486.729 1124.25 497.556 1110.84 506.559 1096.71C524.589 1068.42 535.404 1037.11 523.761 999.536C511.685 960.563 479.958 941.811 445.55 925.135C440.984 922.922 436.372 920.745 431.749 918.564C401.37 904.227 370.523 889.669 349.22 863.109C326.444 834.711 314.517 797.901 302.665 761.323C301.363 757.307 300.063 753.294 298.749 749.294C285.525 709.04 270.937 670.211 240.084 645.738C172.94 592.479 87.577 578.548 22.8552 605.165C-42.986 632.241 -80.137 707.68 -101.114 785.861C-120.71 858.893 -125.014 946.636 -90.3237 1025.96C-74.3586 1062.47 -48.5296 1089.22 -19.523 1112.57C-5.02376 1124.25 10.293 1135.09 25.5756 1145.87L26.7877 1146.73C41.6768 1157.23 56.5123 1167.69 70.5822 1178.88C112.874 1212.49 154.913 1242.31 201.777 1258.22Z" fill="#009BF0" stroke="#05A7FF" stroke-width="3"/>
<g filter="url(#filter3_d_2088_154)">
<path fill-rule="evenodd" clip-rule="evenodd" d="M213.583 1230.07C171.887 1245.12 126.602 1240.04 82.2786 1229.76C38.3646 1219.58 0.00437233 1197.26 -38.4729 1171.63C-91.2317 1136.48 -157.293 1112.63 -182.77 1053.2C-210.542 988.417 -200.259 913.695 -176.232 850.281C-150.455 782.251 -109.422 715.936 -44.5902 688.518C19.2537 661.518 100.221 667.249 161.018 707.657C216.461 744.506 206.137 834.379 250.907 884.917C294.49 934.115 392.185 924.807 409.712 988.391C426.64 1049.81 360.021 1096.48 322.102 1143.2C291.901 1180.42 258.133 1213.99 213.583 1230.07Z" fill="#42AEF5"/>
</g>
<g filter="url(#filter4_d_2088_154)">
<path fill-rule="evenodd" clip-rule="evenodd" d="M153.583 1290.07C111.887 1305.12 66.6021 1300.04 22.2786 1289.76C-21.6354 1279.58 -59.9956 1257.26 -98.4729 1231.63C-151.232 1196.48 -217.293 1172.63 -242.77 1113.2C-270.542 1048.42 -260.259 973.695 -236.232 910.281C-210.455 842.251 -169.422 775.936 -104.59 748.518C-40.7463 721.518 40.2212 727.249 101.018 767.657C156.461 804.506 146.137 894.379 190.907 944.917C234.49 994.115 332.185 984.807 349.712 1048.39C366.64 1109.81 300.021 1156.48 262.102 1203.2C231.901 1240.42 198.133 1273.99 153.583 1290.07Z" fill="#61C3FF"/>
</g>
<path d="M1530.59 -17.5563C1498.72 10.5621 1463.1 42.9574 1437.97 78.4873C1412.83 114.024 1398.01 152.924 1408.14 193.969C1418.76 237.027 1459.5 260.408 1503.61 281.904C1508.94 284.501 1514.32 287.071 1519.72 289.646C1536.74 297.779 1553.87 305.958 1569.78 315.183C1590.71 327.319 1609.39 341.184 1622.77 358.943C1642.06 384.54 1643.27 416.647 1644.49 449.029C1644.55 450.592 1644.61 452.155 1644.67 453.719C1645.99 487.455 1648.28 521.151 1673.31 546.029C1728.49 600.881 1813.64 633.388 1893.29 627.149C1933.81 623.976 1968.34 607.332 2000.27 585.627C2021.03 571.515 2040.79 555.181 2060.37 538.994C2070.84 530.341 2081.26 521.731 2091.75 513.524C2105.86 502.482 2121.08 491.847 2136.41 481.13C2138.62 479.581 2140.84 478.031 2143.06 476.478C2160.6 464.186 2178.1 451.701 2193.98 438.35C2225.74 411.66 2251.25 381.348 2257.79 341.84C2264.32 302.425 2251.94 264.356 2231.44 228.202C2211.9 193.728 2184.87 160.829 2159.55 130.012C2158.33 128.52 2157.11 127.033 2155.89 125.551C2133.27 97.9908 2104.88 77.3428 2074.52 58.7373C2060.78 50.3126 2046.61 42.2941 2032.39 34.2451C2030.91 33.4068 2029.43 32.5682 2027.94 31.7287C2012.22 22.8235 1996.48 13.8217 1981.14 4.10587C1963.29 -7.20246 1946.32 -20.4243 1929.51 -33.9961C1925.66 -37.1113 1921.81 -40.246 1917.96 -43.38C1905.07 -53.8831 1892.19 -64.3779 1879.04 -74.1014C1844.91 -99.3601 1808.78 -119.614 1765.38 -121.722C1674.87 -126.12 1594.35 -73.8152 1530.59 -17.5563Z" fill="#009BF0" stroke="#05A7FF" stroke-width="3"/>
<g filter="url(#filter5_d_2088_154)">
<path fill-rule="evenodd" clip-rule="evenodd" d="M1482.3 113.186C1466.39 37.9125 1534.28 -31.3021 1589.61 -84.7614C1644.89 -138.171 1714.16 -187.848 1790.98 -185.047C1864.39 -182.37 1912.41 -112.196 1973.08 -70.7803C2025.1 -35.2689 2082.85 -10.6066 2120.5 39.8914C2164.69 99.1659 2216.45 166.445 2204.31 239.375C2192.16 312.388 2116.47 352.978 2060.35 401.237C2007.94 446.306 1958.48 502.881 1889.71 509.9C1821.89 516.823 1749.89 487.817 1703.73 437.639C1662.43 392.738 1697.68 314.129 1663.29 263.739C1617.95 197.296 1498.94 191.889 1482.3 113.186Z" fill="#42AEF5"/>
</g>
<g filter="url(#filter6_d_2088_154)">
<path fill-rule="evenodd" clip-rule="evenodd" d="M1542.3 53.1865C1526.39 -22.0875 1594.28 -91.3021 1649.61 -144.761C1704.89 -198.171 1774.16 -247.848 1850.98 -245.047C1924.39 -242.37 1972.41 -172.196 2033.08 -130.78C2085.1 -95.2689 2142.85 -70.6066 2180.5 -20.1086C2224.69 39.1659 2276.45 106.445 2264.31 179.375C2252.16 252.388 2176.47 292.978 2120.35 341.237C2067.94 386.306 2018.48 442.881 1949.71 449.9C1881.89 456.823 1809.89 427.817 1763.73 377.639C1722.43 332.738 1757.68 254.129 1723.29 203.739C1677.95 137.296 1558.94 131.889 1542.3 53.1865Z" fill="#61C3FF"/>
</g>
<g filter="url(#filter7_d_2088_154)">
<path fill-rule="evenodd" clip-rule="evenodd" d="M1602.3 -6.8145C1586.39 -82.0884 1654.28 -151.303 1709.61 -204.762C1764.89 -258.172 1834.16 -307.849 1910.98 -305.048C1984.39 -302.371 2032.41 -232.197 2093.08 -190.781C2145.1 -155.27 2202.85 -130.608 2240.5 -80.1096C2284.69 -20.8351 2336.45 46.4436 2324.31 119.374C2312.16 192.387 2236.47 232.977 2180.35 281.236C2127.94 326.305 2078.48 382.88 2009.71 389.899C1941.89 396.822 1869.89 367.816 1823.73 317.638C1782.43 272.737 1817.68 194.128 1783.29 143.738C1737.95 77.2946 1618.94 71.8884 1602.3 -6.8145Z" fill="#94D7FF"/>
</g>
<g filter="url(#filter8_d_2088_154)">
<path fill-rule="evenodd" clip-rule="evenodd" d="M75.6723 1312.5C34.1056 1327.82 -10.4603 1324.25 -53.9376 1315.75C-97.0133 1307.32 -134.279 1287.29 -171.572 1264.15C-222.706 1232.41 -287.277 1211.69 -310.825 1156.3C-336.496 1095.93 -324.331 1025.15 -298.904 964.676C-271.625 899.795 -229.333 836.123 -164.595 808.508C-100.844 781.314 -21.0708 784.539 37.8569 821.026C91.5944 854.299 78.9818 939.37 121.816 985.847C163.513 1031.09 260.204 1019.68 275.793 1079.19C290.85 1136.68 223.828 1182.51 185.138 1227.62C154.322 1263.54 120.083 1296.13 75.6723 1312.5Z" fill="#94D7FF"/>
</g>
<g clip-path="url(#clip1_2088_154)" filter="url(#filter9_d_2088_154)">
<path d="M1088 540.077C1087.98 574.011 1074.48 606.549 1050.48 630.537C1026.48 654.525 993.934 668 960 668C926.066 668 893.52 654.525 869.517 630.537C845.515 606.549 832.02 574.011 832 540.077C831.99 523.261 835.293 506.608 841.721 491.07C848.149 475.531 857.576 461.412 869.463 449.518C881.35 437.623 895.464 428.188 910.999 421.751C926.533 415.313 943.184 412 960 412C976.816 412 993.467 415.313 1009 421.751C1024.54 428.188 1038.65 437.623 1050.54 449.518C1062.42 461.412 1071.85 475.531 1078.28 491.07C1084.71 506.608 1088.01 523.261 1088 540.077Z" fill="#009BF9"/>
<path d="M985.225 434.535C982.834 434.592 980.544 435.514 978.78 437.129C977.017 438.745 975.898 440.945 975.631 443.321C975.365 445.698 975.968 448.091 977.33 450.058C978.692 452.024 980.721 453.43 983.04 454.015C998.134 458.059 1011.9 466.005 1022.94 477.055C1023.86 477.997 1024.95 478.749 1026.16 479.265C1027.36 479.782 1028.66 480.053 1029.97 480.064C1031.28 480.074 1032.58 479.823 1033.8 479.326C1035.01 478.828 1036.12 478.094 1037.04 477.167C1037.97 476.239 1038.71 475.136 1039.2 473.921C1039.7 472.707 1039.95 471.406 1039.94 470.094C1039.93 468.782 1039.66 467.485 1039.14 466.278C1038.63 465.072 1037.87 463.981 1036.93 463.068C1023.43 449.563 1006.61 439.85 988.16 434.908C987.206 434.637 986.216 434.511 985.225 434.535ZM960.28 466.408C958.937 466.403 957.596 466.436 956.257 466.505C938.413 467.422 921.101 474.814 907.957 487.958C907.02 488.863 906.273 489.946 905.759 491.143C905.244 492.341 904.974 493.628 904.963 494.931C904.951 496.234 905.2 497.526 905.693 498.732C906.187 499.938 906.915 501.034 907.837 501.955C908.758 502.877 909.854 503.606 911.06 504.099C912.266 504.593 913.558 504.841 914.861 504.83C916.164 504.818 917.452 504.548 918.649 504.034C919.846 503.52 920.929 502.772 921.835 501.835C937.291 486.379 960.461 481.77 980.655 490.135C1000.85 498.5 1013.97 518.142 1013.97 540C1013.97 561.858 1000.85 581.5 980.655 589.865C960.461 598.23 937.291 593.621 921.835 578.165C920.929 577.228 919.847 576.48 918.649 575.966C917.452 575.452 916.164 575.181 914.861 575.17C913.558 575.159 912.266 575.407 911.06 575.901C909.854 576.394 908.758 577.123 907.837 578.044C906.915 578.966 906.187 580.061 905.693 581.268C905.2 582.474 904.951 583.766 904.963 585.069C904.974 586.372 905.244 587.66 905.759 588.857C906.273 590.054 907.02 591.137 907.957 592.043C928.987 613.072 960.689 619.379 988.165 607.998C1015.64 596.616 1033.6 569.74 1033.6 540C1033.6 510.26 1015.64 483.384 988.165 472.003C979.149 468.268 969.679 466.438 960.28 466.408ZM959.76 501.6C938.697 501.732 921.512 519.097 921.6 540.16C921.688 561.223 939.017 578.444 960.08 578.4C980.599 578.357 997.378 561.911 998.237 541.59C998.329 541.087 998.381 540.578 998.392 540.068C998.392 540.044 998.4 540.023 998.4 540C998.399 539.958 998.397 539.915 998.395 539.873C998.396 539.808 998.397 539.744 998.397 539.68C998.397 539.637 998.386 539.598 998.385 539.555C998.37 539.03 998.312 538.508 998.212 537.993C997.133 517.726 980.245 501.472 959.76 501.6ZM864.96 504.385C862.682 504.278 860.437 504.962 858.605 506.321C856.773 507.679 855.467 509.629 854.907 511.84C849.964 530.287 849.964 549.713 854.907 568.16C855.228 569.432 855.798 570.627 856.585 571.676C857.371 572.726 858.359 573.608 859.49 574.272C860.62 574.937 861.872 575.369 863.172 575.545C864.471 575.721 865.793 575.637 867.06 575.298C868.326 574.958 869.513 574.37 870.551 573.568C871.588 572.766 872.456 571.765 873.103 570.625C873.75 569.484 874.164 568.226 874.321 566.924C874.477 565.622 874.373 564.302 874.015 563.04C869.97 547.946 869.97 532.054 874.015 516.96C874.421 515.526 874.497 514.02 874.239 512.552C873.981 511.085 873.395 509.695 872.524 508.486C871.654 507.277 870.521 506.28 869.211 505.57C867.901 504.86 866.448 504.455 864.96 504.385ZM898.882 513.553C896.622 513.446 894.394 514.125 892.576 515.473C890.758 516.821 889.462 518.756 888.907 520.95C885.564 533.429 885.564 546.571 888.907 559.05C889.225 560.312 889.79 561.499 890.571 562.54C891.351 563.582 892.331 564.458 893.453 565.117C894.575 565.777 895.817 566.206 897.107 566.381C898.397 566.556 899.708 566.472 900.965 566.136C902.223 565.799 903.4 565.215 904.43 564.419C905.459 563.623 906.32 562.629 906.962 561.497C907.604 560.365 908.015 559.117 908.17 557.824C908.325 556.532 908.221 555.222 907.865 553.97C905.413 544.818 905.413 535.182 907.865 526.03C908.268 524.608 908.344 523.113 908.088 521.657C907.832 520.201 907.251 518.822 906.387 517.622C905.523 516.422 904.4 515.433 903.1 514.729C901.801 514.024 900.359 513.622 898.882 513.553ZM959.88 520.8C970.58 520.733 979.108 529.139 979.197 539.84C979.199 539.869 979.201 539.898 979.202 539.928C979.202 539.952 979.201 539.976 979.2 540C979.2 550.701 970.741 559.178 960.04 559.2C949.339 559.222 940.845 550.781 940.8 540.08C940.755 529.379 949.179 520.867 959.88 520.8ZM1029.74 599.953C1027.18 600.029 1024.74 601.102 1022.94 602.945C1011.9 613.995 998.134 621.941 983.04 625.985C981.768 626.306 980.573 626.876 979.524 627.662C978.474 628.449 977.592 629.436 976.928 630.567C976.263 631.698 975.831 632.95 975.655 634.249C975.479 635.549 975.563 636.871 975.902 638.137C976.242 639.404 976.83 640.591 977.632 641.628C978.434 642.666 979.435 643.533 980.575 644.18C981.716 644.828 982.974 645.242 984.276 645.398C985.578 645.555 986.898 645.451 988.16 645.093C1006.61 640.15 1023.43 630.437 1036.93 616.933C1038.36 615.543 1039.34 613.754 1039.73 611.801C1040.13 609.847 1039.92 607.82 1039.15 605.984C1038.37 604.149 1037.06 602.591 1035.38 601.514C1033.7 600.438 1031.74 599.894 1029.74 599.953Z" fill="white"/>
</g>
</g>
<defs>
<filter id="filter0_b_2088_154" x="-72.3" y="-72.3" width="2064.6" height="1224.6" filterUnits="userSpaceOnUse" color-interpolation-filters="sRGB">
<feFlood flood-opacity="0" result="BackgroundImageFix"/>
<feGaussianBlur in="BackgroundImageFix" stdDeviation="36.15"/>
<feComposite in2="SourceAlpha" operator="in" result="effect1_backgroundBlur_2088_154"/>
<feBlend mode="normal" in="SourceGraphic" in2="effect1_backgroundBlur_2088_154" result="shape"/>
</filter>
<filter id="filter1_f_2088_154" x="800.194" y="-263.159" width="1600.72" height="1319.88" filterUnits="userSpaceOnUse" color-interpolation-filters="sRGB">
<feFlood flood-opacity="0" result="BackgroundImageFix"/>
<feBlend mode="normal" in="SourceGraphic" in2="BackgroundImageFix" result="shape"/>
<feGaussianBlur stdDeviation="100" result="effect1_foregroundBlur_2088_154"/>
</filter>
<filter id="filter2_f_2088_154" x="-266.884" y="-26.3379" width="1426.74" height="1572.63" filterUnits="userSpaceOnUse" color-interpolation-filters="sRGB">
<feFlood flood-opacity="0" result="BackgroundImageFix"/>
<feBlend mode="normal" in="SourceGraphic" in2="BackgroundImageFix" result="shape"/>
<feGaussianBlur stdDeviation="100" result="effect1_foregroundBlur_2088_154"/>
</filter>
<filter id="filter3_d_2088_154" x="-231.526" y="649.848" width="680.041" height="635.772" filterUnits="userSpaceOnUse" color-interpolation-filters="sRGB">
<feFlood flood-opacity="0" result="BackgroundImageFix"/>
<feColorMatrix in="SourceAlpha" type="matrix" values="0 0 0 0 0 0 0 0 0 0 0 0 0 0 0 0 0 0 127 0" result="hardAlpha"/>
<feOffset dx="2" dy="12"/>
<feGaussianBlur stdDeviation="17.05"/>
<feComposite in2="hardAlpha" operator="out"/>
<feColorMatrix type="matrix" values="0 0 0 0 0 0 0 0 0 0 0 0 0 0 0 0 0 0 0.25 0"/>
<feBlend mode="normal" in2="BackgroundImageFix" result="effect1_dropShadow_2088_154"/>
<feBlend mode="normal" in="SourceGraphic" in2="effect1_dropShadow_2088_154" result="shape"/>
</filter>
<filter id="filter4_d_2088_154" x="-291.526" y="709.848" width="680.041" height="635.772" filterUnits="userSpaceOnUse" color-interpolation-filters="sRGB">
<feFlood flood-opacity="0" result="BackgroundImageFix"/>
<feColorMatrix in="SourceAlpha" type="matrix" values="0 0 0 0 0 0 0 0 0 0 0 0 0 0 0 0 0 0 127 0" result="hardAlpha"/>
<feOffset dx="2" dy="12"/>
<feGaussianBlur stdDeviation="17.05"/>
<feComposite in2="hardAlpha" operator="out"/>
<feColorMatrix type="matrix" values="0 0 0 0 0 0 0 0 0 0 0 0 0 0 0 0 0 0 0.25 0"/>
<feBlend mode="normal" in2="BackgroundImageFix" result="effect1_dropShadow_2088_154"/>
<feBlend mode="normal" in="SourceGraphic" in2="effect1_dropShadow_2088_154" result="shape"/>
</filter>
<filter id="filter5_d_2088_154" x="1447.85" y="-207.26" width="794.361" height="764.274" filterUnits="userSpaceOnUse" color-interpolation-filters="sRGB">
<feFlood flood-opacity="0" result="BackgroundImageFix"/>
<feColorMatrix in="SourceAlpha" type="matrix" values="0 0 0 0 0 0 0 0 0 0 0 0 0 0 0 0 0 0 127 0" result="hardAlpha"/>
<feOffset dx="2" dy="12"/>
<feGaussianBlur stdDeviation="17.05"/>
<feComposite in2="hardAlpha" operator="out"/>
<feColorMatrix type="matrix" values="0 0 0 0 0 0 0 0 0 0 0 0 0 0 0 0 0 0 0.25 0"/>
<feBlend mode="normal" in2="BackgroundImageFix" result="effect1_dropShadow_2088_154"/>
<feBlend mode="normal" in="SourceGraphic" in2="effect1_dropShadow_2088_154" result="shape"/>
</filter>
<filter id="filter6_d_2088_154" x="1507.85" y="-267.26" width="794.361" height="764.274" filterUnits="userSpaceOnUse" color-interpolation-filters="sRGB">
<feFlood flood-opacity="0" result="BackgroundImageFix"/>
<feColorMatrix in="SourceAlpha" type="matrix" values="0 0 0 0 0 0 0 0 0 0 0 0 0 0 0 0 0 0 127 0" result="hardAlpha"/>
<feOffset dx="2" dy="12"/>
<feGaussianBlur stdDeviation="17.05"/>
<feComposite in2="hardAlpha" operator="out"/>
<feColorMatrix type="matrix" values="0 0 0 0 0 0 0 0 0 0 0 0 0 0 0 0 0 0 0.25 0"/>
<feBlend mode="normal" in2="BackgroundImageFix" result="effect1_dropShadow_2088_154"/>
<feBlend mode="normal" in="SourceGraphic" in2="effect1_dropShadow_2088_154" result="shape"/>
</filter>
<filter id="filter7_d_2088_154" x="1567.85" y="-327.261" width="794.361" height="764.274" filterUnits="userSpaceOnUse" color-interpolation-filters="sRGB">
<feFlood flood-opacity="0" result="BackgroundImageFix"/>
<feColorMatrix in="SourceAlpha" type="matrix" values="0 0 0 0 0 0 0 0 0 0 0 0 0 0 0 0 0 0 127 0" result="hardAlpha"/>
<feOffset dx="2" dy="12"/>
<feGaussianBlur stdDeviation="17.05"/>
<feComposite in2="hardAlpha" operator="out"/>
<feColorMatrix type="matrix" values="0 0 0 0 0 0 0 0 0 0 0 0 0 0 0 0 0 0 0.25 0"/>
<feBlend mode="normal" in2="BackgroundImageFix" result="effect1_dropShadow_2088_154"/>
<feBlend mode="normal" in="SourceGraphic" in2="effect1_dropShadow_2088_154" result="shape"/>
</filter>
<filter id="filter8_d_2088_154" x="-357.154" y="768.421" width="671.213" height="600.738" filterUnits="userSpaceOnUse" color-interpolation-filters="sRGB">
<feFlood flood-opacity="0" result="BackgroundImageFix"/>
<feColorMatrix in="SourceAlpha" type="matrix" values="0 0 0 0 0 0 0 0 0 0 0 0 0 0 0 0 0 0 127 0" result="hardAlpha"/>
<feOffset dx="2" dy="12"/>
<feGaussianBlur stdDeviation="17.05"/>
<feComposite in2="hardAlpha" operator="out"/>
<feColorMatrix type="matrix" values="0 0 0 0 0 0 0 0 0 0 0 0 0 0 0 0 0 0 0.25 0"/>
<feBlend mode="normal" in2="BackgroundImageFix" result="effect1_dropShadow_2088_154"/>
<feBlend mode="normal" in="SourceGraphic" in2="effect1_dropShadow_2088_154" result="shape"/>
</filter>
<filter id="filter9_d_2088_154" x="828" y="412" width="264" height="264" filterUnits="userSpaceOnUse" color-interpolation-filters="sRGB">
<feFlood flood-opacity="0" result="BackgroundImageFix"/>
<feColorMatrix in="SourceAlpha" type="matrix" values="0 0 0 0 0 0 0 0 0 0 0 0 0 0 0 0 0 0 127 0" result="hardAlpha"/>
<feOffset dy="4"/>
<feGaussianBlur stdDeviation="2"/>
<feComposite in2="hardAlpha" operator="out"/>
<feColorMatrix type="matrix" values="0 0 0 0 0 0 0 0 0 0 0 0 0 0 0 0 0 0 0.25 0"/>
<feBlend mode="normal" in2="BackgroundImageFix" result="effect1_dropShadow_2088_154"/>
<feBlend mode="normal" in="SourceGraphic" in2="effect1_dropShadow_2088_154" result="shape"/>
</filter>
<clipPath id="clip0_2088_154">
<rect width="1920" height="1080" fill="white"/>
</clipPath>
<clipPath id="clip1_2088_154">
<rect width="256" height="256" fill="white" transform="translate(832 412)"/>
</clipPath>
</defs>
</svg>
